<svg width="64" height="65" viewBox="0 0 64 65" fill="none" xmlns="http://www.w3.org/2000/svg">
<path d="M21 60.5C21.7889 60.5033 22.5706 60.3504 23.3 60.05C24.0295 59.7497 24.6922 59.3078 25.25 58.75C25.8078 58.1922 26.2497 57.5295 26.55 56.8C26.8504 56.0706 27.0033 55.2889 27 54.5V42.5" stroke="#FAFAFA" stroke-width="3.93478" stroke-linecap="round" stroke-linejoin="round"/>
<path d="M43.0001 60.5C42.2112 60.5033 41.4295 60.3504 40.7 60.05C39.9706 59.7497 39.3078 59.3078 38.75 58.75C38.1922 58.1922 37.7504 57.5295 37.45 56.8C37.1497 56.0706 36.9967 55.2889 37.0001 54.5V42.5" stroke="#FAFAFA" stroke-width="3.93478" stroke-linecap="round" stroke-linejoin="round"/>
<path d="M38 42.5001H42C42.7889 42.4967 43.5706 42.6497 44.3 42.95C45.0295 43.2504 45.6922 43.6922 46.25 44.25C46.8078 44.8078 47.2497 45.4706 47.55 46.2C47.8504 46.9295 48.0033 47.7112 48 48.5001V50.5001C47.9967 51.2889 48.1496 52.0706 48.45 52.8001C48.7503 53.5295 49.1922 54.1923 49.75 54.7501C50.3078 55.3079 50.9705 55.7497 51.7 56.0501C52.4294 56.3504 53.2111 56.5034 54 56.5001" stroke="#FAFAFA" stroke-width="3.93478" stroke-linecap="round" stroke-linejoin="round"/>
<path d="M26 42.5001H22C21.2111 42.4967 20.4294 42.6497 19.7 42.95C18.9705 43.2504 18.3078 43.6922 17.75 44.25C17.1922 44.8078 16.7503 45.4706 16.45 46.2C16.1496 46.9295 15.9967 47.7112 16 48.5001V50.5001C16.0033 51.2889 15.8504 52.0706 15.55 52.8001C15.2497 53.5295 14.8078 54.1923 14.25 54.7501C13.6922 55.3079 13.0295 55.7497 12.3 56.0501C11.5706 56.3504 10.7889 56.5034 10 56.5001" stroke="#FAFAFA" stroke-width="3.93478" stroke-linecap="round" stroke-linejoin="round"/>
<path d="M27.95 16.5C26.775 14.6613 25.1561 13.1479 23.2425 12.0993C21.3289 11.0507 19.1821 10.5007 17 10.5C16.0298 12.1794 15.4476 14.0547 15.2962 15.9883C15.1448 17.922 15.428 19.865 16.125 21.675C14.758 23.6901 14.0186 26.065 14 28.5V30.5C14 33.6826 15.2643 36.7348 17.5147 38.9853C19.7652 41.2357 22.8174 42.5 26 42.5H38C41.1826 42.5 44.2348 41.2357 46.4853 38.9853C48.7357 36.7348 50 33.6826 50 30.5V28.5C49.9814 26.065 49.242 23.6901 47.875 21.675C48.572 19.865 48.8552 17.922 48.7038 15.9883C48.5524 14.0547 47.9702 12.1794 47 10.5C44.8179 10.5007 42.6711 11.0507 40.7575 12.0993C38.8439 13.1479 37.225 14.6613 36.05 16.5H27.95Z" stroke="#FAFAFA" stroke-width="3.93478" stroke-linecap="round" stroke-linejoin="round"/>
</svg>
