<svg width="662" height="447" viewBox="0 0 662 447" fill="none" xmlns="http://www.w3.org/2000/svg">
<g clip-path="url(#clip0_55_565)">
<path d="M64.5 271.993C91.0097 271.993 112.5 250.503 112.5 223.993C112.5 197.483 91.0097 175.993 64.5 175.993C37.9903 175.993 16.5 197.483 16.5 223.993C16.5 250.503 37.9903 271.993 64.5 271.993Z" stroke="white" stroke-width="5" stroke-linecap="round" stroke-linejoin="round"/>
<path d="M64.5 239.993C75.5457 239.993 84.5 231.039 84.5 219.993C84.5 208.947 75.5457 199.993 64.5 199.993C53.4543 199.993 44.5 208.947 44.5 219.993C44.5 231.039 53.4543 239.993 64.5 239.993Z" stroke="white" stroke-width="5" stroke-linecap="round" stroke-linejoin="round"/>
<path d="M32.3984 259.692C35.408 253.764 40.0002 248.786 45.6661 245.308C51.3321 241.83 57.8503 239.989 64.4984 239.989C71.1465 239.989 77.6648 241.83 83.3307 245.308C88.9966 248.786 93.5889 253.764 96.5984 259.692" stroke="white" stroke-width="5" stroke-linecap="round" stroke-linejoin="round"/>
<path d="M111.774 222.681C111.049 223.082 110.786 223.995 111.188 224.719C111.589 225.444 112.502 225.707 113.226 225.305L111.774 222.681ZM337.942 100.407C338.17 99.6111 337.71 98.7801 336.914 98.5513L323.939 94.8229C323.143 94.5941 322.312 95.0541 322.083 95.8503C321.855 96.6465 322.315 97.4774 323.111 97.7062L334.644 101.02L331.33 112.554C331.101 113.35 331.561 114.181 332.357 114.41C333.154 114.638 333.984 114.178 334.213 113.382L337.942 100.407ZM113.226 225.305L337.226 101.305L335.774 98.6807L111.774 222.681L113.226 225.305Z" fill="white"/>
<path d="M111.774 225.305C111.049 224.904 110.786 223.991 111.188 223.267C111.589 222.542 112.502 222.279 113.226 222.681L111.774 225.305ZM337.942 347.579C338.17 348.375 337.71 349.206 336.914 349.435L323.939 353.163C323.143 353.392 322.312 352.932 322.083 352.136C321.855 351.339 322.315 350.509 323.111 350.28L334.644 346.966L331.33 335.432C331.101 334.636 331.561 333.805 332.357 333.576C333.154 333.348 333.984 333.808 334.213 334.604L337.942 347.579ZM113.226 222.681L337.226 346.681L335.774 349.305L111.774 225.305L113.226 222.681Z" fill="white"/>
<path d="M410.774 98.6807C410.049 99.0819 409.786 99.9947 410.188 100.719C410.589 101.444 411.502 101.707 412.226 101.305L410.774 98.6807ZM524.942 38.4073C525.17 37.6111 524.71 36.7801 523.914 36.5513L510.939 32.8229C510.143 32.5941 509.312 33.0541 509.083 33.8503C508.855 34.6465 509.315 35.4774 510.111 35.7062L521.644 39.0204L518.33 50.5537C518.101 51.3499 518.561 52.1808 519.357 52.4096C520.154 52.6384 520.984 52.1784 521.213 51.3822L524.942 38.4073ZM412.226 101.305L524.226 39.3053L522.774 36.6807L410.774 98.6807L412.226 101.305Z" fill="white"/>
<path d="M410.774 101.305C410.049 100.904 409.786 99.9913 410.188 99.2665C410.589 98.5417 411.502 98.2794 412.226 98.6807L410.774 101.305ZM524.942 161.579C525.17 162.375 524.71 163.206 523.914 163.435L510.939 167.163C510.143 167.392 509.312 166.932 509.083 166.136C508.855 165.339 509.315 164.509 510.111 164.28L521.644 160.966L518.33 149.432C518.101 148.636 518.561 147.805 519.357 147.576C520.154 147.348 520.984 147.808 521.213 148.604L524.942 161.579ZM412.226 98.6807L524.226 160.681L522.774 163.305L410.774 101.305L412.226 98.6807Z" fill="white"/>
<path d="M410.774 346.681C410.049 347.082 409.786 347.995 410.188 348.719C410.589 349.444 411.502 349.707 412.226 349.305L410.774 346.681ZM524.942 286.407C525.17 285.611 524.71 284.78 523.914 284.551L510.939 280.823C510.143 280.594 509.312 281.054 509.083 281.85C508.855 282.647 509.315 283.477 510.111 283.706L521.644 287.02L518.33 298.554C518.101 299.35 518.561 300.181 519.357 300.41C520.154 300.638 520.984 300.178 521.213 299.382L524.942 286.407ZM412.226 349.305L524.226 287.305L522.774 284.681L410.774 346.681L412.226 349.305Z" fill="white"/>
<path d="M410.774 349.305C410.049 348.904 409.786 347.991 410.188 347.267C410.589 346.542 411.502 346.279 412.226 346.681L410.774 349.305ZM524.942 409.579C525.17 410.375 524.71 411.206 523.914 411.435L510.939 415.163C510.143 415.392 509.312 414.932 509.083 414.136C508.855 413.339 509.315 412.509 510.111 412.28L521.644 408.966L518.33 397.432C518.101 396.636 518.561 395.805 519.357 395.576C520.154 395.348 520.984 395.808 521.213 396.604L524.942 409.579ZM412.226 346.681L524.226 408.681L522.774 411.305L410.774 349.305L412.226 346.681Z" fill="white"/>
<path d="M602.774 36.6807C602.049 37.0819 601.786 37.9947 602.188 38.7195C602.589 39.4443 603.502 39.7066 604.226 39.3053L602.774 36.6807ZM660.942 7.40725C661.17 6.61104 660.71 5.78012 659.914 5.55132L646.939 1.82289C646.143 1.59409 645.312 2.05408 645.083 2.85028C644.855 3.64649 645.315 4.47742 646.111 4.70621L657.644 8.02037L654.33 19.5537C654.101 20.3499 654.561 21.1808 655.357 21.4096C656.154 21.6384 656.984 21.1784 657.213 20.3822L660.942 7.40725ZM604.226 39.3053L660.226 8.30532L658.774 5.68064L602.774 36.6807L604.226 39.3053Z" fill="white"/>
<path d="M602.774 39.3053C602.049 38.9041 601.786 37.9913 602.188 37.2665C602.589 36.5417 603.502 36.2794 604.226 36.6807L602.774 39.3053ZM660.942 68.5787C661.17 69.3749 660.71 70.2059 659.914 70.4347L646.939 74.1631C646.143 74.3919 645.312 73.9319 645.083 73.1357C644.855 72.3395 645.315 71.5086 646.111 71.2798L657.644 67.9656L654.33 56.4323C654.101 55.6361 654.561 54.8052 655.357 54.5764C656.154 54.3476 656.984 54.8076 657.213 55.6038L660.942 68.5787ZM604.226 36.6807L660.226 67.6807L658.774 70.3053L602.774 39.3053L604.226 36.6807Z" fill="white"/>
<path d="M602.774 158.681C602.049 159.082 601.786 159.995 602.188 160.719C602.589 161.444 603.502 161.707 604.226 161.305L602.774 158.681ZM660.942 129.407C661.17 128.611 660.71 127.78 659.914 127.551L646.939 123.823C646.143 123.594 645.312 124.054 645.083 124.85C644.855 125.647 645.315 126.477 646.111 126.706L657.644 130.02L654.33 141.554C654.101 142.35 654.561 143.181 655.357 143.41C656.154 143.638 656.984 143.178 657.213 142.382L660.942 129.407ZM604.226 161.305L660.226 130.305L658.774 127.681L602.774 158.681L604.226 161.305Z" fill="white"/>
<path d="M602.774 161.305C602.049 160.904 601.786 159.991 602.188 159.267C602.589 158.542 603.502 158.279 604.226 158.681L602.774 161.305ZM660.942 190.579C661.17 191.375 660.71 192.206 659.914 192.435L646.939 196.163C646.143 196.392 645.312 195.932 645.083 195.136C644.855 194.339 645.315 193.509 646.111 193.28L657.644 189.966L654.33 178.432C654.101 177.636 654.561 176.805 655.357 176.576C656.154 176.348 656.984 176.808 657.213 177.604L660.942 190.579ZM604.226 158.681L660.226 189.681L658.774 192.305L602.774 161.305L604.226 158.681Z" fill="white"/>
<path d="M597.774 286.681C597.049 287.082 596.786 287.995 597.188 288.719C597.589 289.444 598.502 289.707 599.226 289.305L597.774 286.681ZM655.942 257.407C656.17 256.611 655.71 255.78 654.914 255.551L641.939 251.823C641.143 251.594 640.312 252.054 640.083 252.85C639.855 253.647 640.315 254.477 641.111 254.706L652.644 258.02L649.33 269.554C649.101 270.35 649.561 271.181 650.357 271.41C651.154 271.638 651.984 271.178 652.213 270.382L655.942 257.407ZM599.226 289.305L655.226 258.305L653.774 255.681L597.774 286.681L599.226 289.305Z" fill="white"/>
<path d="M597.774 289.305C597.049 288.904 596.786 287.991 597.188 287.267C597.589 286.542 598.502 286.279 599.226 286.681L597.774 289.305ZM655.942 318.579C656.17 319.375 655.71 320.206 654.914 320.435L641.939 324.163C641.143 324.392 640.312 323.932 640.083 323.136C639.855 322.339 640.315 321.509 641.111 321.28L652.644 317.966L649.33 306.432C649.101 305.636 649.561 304.805 650.357 304.576C651.154 304.348 651.984 304.808 652.213 305.604L655.942 318.579ZM599.226 286.681L655.226 317.681L653.774 320.305L597.774 289.305L599.226 286.681Z" fill="white"/>
<path d="M597.774 408.681C597.049 409.082 596.786 409.995 597.188 410.719C597.589 411.444 598.502 411.707 599.226 411.305L597.774 408.681ZM655.942 379.407C656.17 378.611 655.71 377.78 654.914 377.551L641.939 373.823C641.143 373.594 640.312 374.054 640.083 374.85C639.855 375.647 640.315 376.477 641.111 376.706L652.644 380.02L649.33 391.554C649.101 392.35 649.561 393.181 650.357 393.41C651.154 393.638 651.984 393.178 652.213 392.382L655.942 379.407ZM599.226 411.305L655.226 380.305L653.774 377.681L597.774 408.681L599.226 411.305Z" fill="white"/>
<path d="M597.774 411.305C597.049 410.904 596.786 409.991 597.188 409.267C597.589 408.542 598.502 408.279 599.226 408.681L597.774 411.305ZM655.942 440.579C656.17 441.375 655.71 442.206 654.914 442.435L641.939 446.163C641.143 446.392 640.312 445.932 640.083 445.136C639.855 444.339 640.315 443.509 641.111 443.28L652.644 439.966L649.33 428.432C649.101 427.636 649.561 426.805 650.357 426.576C651.154 426.348 651.984 426.808 652.213 427.604L655.942 440.579ZM599.226 408.681L655.226 439.681L653.774 442.305L597.774 411.305L599.226 408.681Z" fill="white"/>
<path d="M393.5 74.9932H353.5C352.395 74.9932 351.5 75.8886 351.5 76.9932V116.993C351.5 118.098 352.395 118.993 353.5 118.993H393.5C394.605 118.993 395.5 118.098 395.5 116.993V76.9932C395.5 75.8886 394.605 74.9932 393.5 74.9932Z" stroke="#3ACCB2" stroke-width="6" stroke-linecap="round" stroke-linejoin="round"/>
<path d="M365.025 95.4682L373.5 86.9932L381.975 95.4682" stroke="#3ACCB2" stroke-width="6" stroke-linecap="round" stroke-linejoin="round"/>
<path d="M373.5 106.993V86.9932" stroke="#3ACCB2" stroke-width="6" stroke-linecap="round" stroke-linejoin="round"/>
<path d="M578.5 16.9932H538.5C537.395 16.9932 536.5 17.8886 536.5 18.9932V58.9932C536.5 60.0978 537.395 60.9932 538.5 60.9932H578.5C579.605 60.9932 580.5 60.0978 580.5 58.9932V18.9932C580.5 17.8886 579.605 16.9932 578.5 16.9932Z" stroke="#3ACCB2" stroke-width="6" stroke-linecap="round" stroke-linejoin="round"/>
<path d="M550.025 37.4682L558.5 28.9932L566.975 37.4682" stroke="#3ACCB2" stroke-width="6" stroke-linecap="round" stroke-linejoin="round"/>
<path d="M558.5 48.9932V28.9932" stroke="#3ACCB2" stroke-width="6" stroke-linecap="round" stroke-linejoin="round"/>
<path d="M578.5 264.993H538.5C537.395 264.993 536.5 265.888 536.5 266.993V306.993C536.5 308.098 537.395 308.993 538.5 308.993H578.5C579.605 308.993 580.5 308.098 580.5 306.993V266.993C580.5 265.888 579.605 264.993 578.5 264.993Z" stroke="#3ACCB2" stroke-width="6" stroke-linecap="round" stroke-linejoin="round"/>
<path d="M550.025 285.468L558.5 276.993L566.975 285.468" stroke="#3ACCB2" stroke-width="6" stroke-linecap="round" stroke-linejoin="round"/>
<path d="M558.5 296.993V276.993" stroke="#3ACCB2" stroke-width="6" stroke-linecap="round" stroke-linejoin="round"/>
<path d="M353.5 369.993H393.5C394.605 369.993 395.5 369.098 395.5 367.993V327.993C395.5 326.888 394.605 325.993 393.5 325.993H353.5C352.395 325.993 351.5 326.888 351.5 327.993V367.993C351.5 369.098 352.395 369.993 353.5 369.993Z" stroke="#EC2B65" stroke-width="6" stroke-linecap="round" stroke-linejoin="round"/>
<path d="M381.975 349.518L373.5 357.993L365.025 349.518" stroke="#EC2B65" stroke-width="6" stroke-linecap="round" stroke-linejoin="round"/>
<path d="M373.5 337.993V357.993" stroke="#EC2B65" stroke-width="6" stroke-linecap="round" stroke-linejoin="round"/>
<path d="M538.5 181.993H578.5C579.605 181.993 580.5 181.098 580.5 179.993V139.993C580.5 138.888 579.605 137.993 578.5 137.993H538.5C537.395 137.993 536.5 138.888 536.5 139.993V179.993C536.5 181.098 537.395 181.993 538.5 181.993Z" stroke="#EC2B65" stroke-width="6" stroke-linecap="round" stroke-linejoin="round"/>
<path d="M566.975 161.518L558.5 169.993L550.025 161.518" stroke="#EC2B65" stroke-width="6" stroke-linecap="round" stroke-linejoin="round"/>
<path d="M558.5 149.993V169.993" stroke="#EC2B65" stroke-width="6" stroke-linecap="round" stroke-linejoin="round"/>
<path d="M538.5 429.993H578.5C579.605 429.993 580.5 429.098 580.5 427.993V387.993C580.5 386.888 579.605 385.993 578.5 385.993H538.5C537.395 385.993 536.5 386.888 536.5 387.993V427.993C536.5 429.098 537.395 429.993 538.5 429.993Z" stroke="#EC2B65" stroke-width="6" stroke-linecap="round" stroke-linejoin="round"/>
<path d="M566.975 409.518L558.5 417.993L550.025 409.518" stroke="#EC2B65" stroke-width="6" stroke-linecap="round" stroke-linejoin="round"/>
<path d="M558.5 397.993V417.993" stroke="#EC2B65" stroke-width="6" stroke-linecap="round" stroke-linejoin="round"/>
</g>
<defs>
<clipPath id="clip0_55_565">
<rect width="661" height="446" fill="white" transform="translate(0.5 0.993164)"/>
</clipPath>
</defs>
</svg>
