<svg width="1362" height="354" viewBox="0 0 1362 354" fill="none" xmlns="http://www.w3.org/2000/svg">
<g clip-path="url(#clip0_55_455)">
<path d="M0 124.408H1362" stroke="white" stroke-width="7.15981" stroke-linecap="round"/>
<path d="M142.023 84.3154H61.8276V164.5H142.023V84.3154Z" fill="#000B0D"/>
<path d="M131.998 139.849V108.965C131.996 108.519 131.876 108.082 131.65 107.697C131.424 107.312 131.101 106.994 130.713 106.773L103.146 91.2689C102.775 91.0548 102.353 90.9419 101.925 90.9419C101.496 90.9419 101.075 91.0548 100.703 91.2689L73.1364 106.773C72.7484 106.994 72.4253 107.312 72.1998 107.697C71.9744 108.082 71.8544 108.519 71.852 108.965V139.849C71.8544 140.296 71.9744 140.733 72.1998 141.118C72.4253 141.502 72.7484 141.821 73.1364 142.042L100.703 157.546C101.075 157.76 101.496 157.873 101.925 157.873C102.353 157.873 102.775 157.76 103.146 157.546L130.713 142.042C131.101 141.821 131.424 141.502 131.65 141.118C131.876 140.733 131.996 140.296 131.998 139.849Z" fill="#000B0D" stroke="white" stroke-width="7.15981" stroke-linecap="round" stroke-linejoin="round"/>
<path d="M131.653 107.682L102.207 124.408L72.1971 107.682" fill="#000B0D"/>
<path d="M131.653 107.682L102.207 124.408L72.1971 107.682" stroke="white" stroke-width="7.15981" stroke-linecap="round" stroke-linejoin="round"/>
<path d="M102.206 124.408L101.925 157.859" stroke="white" stroke-width="7.15981" stroke-linecap="round" stroke-linejoin="round"/>
<path d="M866.033 84.3154H785.838V164.5H866.033V84.3154Z" fill="#000B0D"/>
<path d="M856.008 139.849V108.965C856.006 108.519 855.886 108.082 855.66 107.697C855.435 107.312 855.112 106.994 854.724 106.773L827.157 91.2689C826.786 91.0548 826.364 90.9419 825.936 90.9419C825.506 90.9419 825.085 91.0548 824.713 91.2689L797.147 106.773C796.759 106.994 796.436 107.312 796.21 107.697C795.985 108.082 795.865 108.519 795.862 108.965V139.849C795.865 140.296 795.985 140.733 796.21 141.118C796.436 141.502 796.759 141.821 797.147 142.042L824.713 157.546C825.085 157.76 825.506 157.873 825.936 157.873C826.364 157.873 826.786 157.76 827.157 157.546L854.724 142.042C855.112 141.821 855.435 141.502 855.66 141.118C855.886 140.733 856.006 140.296 856.008 139.849Z" fill="#000B0D" stroke="white" stroke-width="7.15981" stroke-linecap="round" stroke-linejoin="round"/>
<path d="M855.664 107.682L826.218 124.408L796.207 107.682" fill="#000B0D"/>
<path d="M855.664 107.682L826.218 124.408L796.207 107.682" stroke="white" stroke-width="7.15981" stroke-linecap="round" stroke-linejoin="round"/>
<path d="M826.217 124.408L825.936 157.859" stroke="white" stroke-width="7.15981" stroke-linecap="round" stroke-linejoin="round"/>
<path d="M286.907 84.3154H206.712V164.5H286.907V84.3154Z" fill="#000B0D"/>
<path d="M276.883 139.849V108.965C276.88 108.519 276.76 108.082 276.534 107.697C276.309 107.312 275.986 106.994 275.598 106.773L248.031 91.2689C247.66 91.0548 247.239 90.9419 246.81 90.9419C246.38 90.9419 245.959 91.0548 245.588 91.2689L218.021 106.773C217.633 106.994 217.31 107.312 217.085 107.697C216.859 108.082 216.739 108.519 216.736 108.965V139.849C216.739 140.296 216.859 140.733 217.085 141.118C217.31 141.502 217.633 141.821 218.021 142.042L245.588 157.546C245.959 157.76 246.38 157.873 246.81 157.873C247.239 157.873 247.66 157.76 248.031 157.546L275.598 142.042C275.986 141.821 276.309 141.502 276.534 141.118C276.76 140.733 276.88 140.296 276.883 139.849Z" fill="#000B0D" stroke="white" stroke-width="7.15981" stroke-linecap="round" stroke-linejoin="round"/>
<path d="M276.539 107.682L247.092 124.408L217.082 107.682" fill="#000B0D"/>
<path d="M276.539 107.682L247.092 124.408L217.082 107.682" stroke="white" stroke-width="7.15981" stroke-linecap="round" stroke-linejoin="round"/>
<path d="M247.092 124.408L246.81 157.859" stroke="white" stroke-width="7.15981" stroke-linecap="round" stroke-linejoin="round"/>
<path d="M1010.92 84.3154H930.721V164.5H1010.92V84.3154Z" fill="#000B0D"/>
<path d="M1000.89 139.849V108.965C1000.89 108.519 1000.77 108.082 1000.54 107.697C1000.32 107.312 999.995 106.994 999.609 106.773L972.038 91.2689C971.671 91.0548 971.249 90.9419 970.819 90.9419C970.389 90.9419 969.968 91.0548 969.601 91.2689L942.029 106.773C941.644 106.994 941.321 107.312 941.097 107.697C940.873 108.082 940.748 108.519 940.748 108.965V139.849C940.748 140.296 940.873 140.733 941.097 141.118C941.321 141.502 941.644 141.821 942.029 142.042L969.601 157.546C969.968 157.76 970.389 157.873 970.819 157.873C971.249 157.873 971.671 157.76 972.038 157.546L999.609 142.042C999.995 141.821 1000.32 141.502 1000.54 141.118C1000.77 140.733 1000.89 140.296 1000.89 139.849Z" fill="#000B0D" stroke="white" stroke-width="7.15981" stroke-linecap="round" stroke-linejoin="round"/>
<path d="M1000.55 107.682L971.106 124.408L941.088 107.682" fill="#000B0D"/>
<path d="M1000.55 107.682L971.106 124.408L941.088 107.682" stroke="white" stroke-width="7.15981" stroke-linecap="round" stroke-linejoin="round"/>
<path d="M971.106 124.408L970.819 157.859" stroke="white" stroke-width="7.15981" stroke-linecap="round" stroke-linejoin="round"/>
<path d="M431.792 84.3154H351.598V164.5H431.792V84.3154Z" fill="#000B0D"/>
<path d="M421.767 139.849V108.965C421.765 108.519 421.645 108.082 421.42 107.697C421.194 107.312 420.871 106.994 420.483 106.773L392.916 91.2689C392.545 91.0548 392.123 90.9419 391.694 90.9419C391.266 90.9419 390.844 91.0548 390.473 91.2689L362.906 106.773C362.518 106.994 362.195 107.312 361.969 107.697C361.744 108.082 361.624 108.519 361.622 108.965V139.849C361.624 140.296 361.744 140.733 361.969 141.118C362.195 141.502 362.518 141.821 362.906 142.042L390.473 157.546C390.844 157.76 391.266 157.873 391.694 157.873C392.123 157.873 392.545 157.76 392.916 157.546L420.483 142.042C420.871 141.821 421.194 141.502 421.42 141.118C421.645 140.733 421.765 140.296 421.767 139.849Z" fill="#000B0D" stroke="white" stroke-width="7.15981" stroke-linecap="round" stroke-linejoin="round"/>
<path d="M421.423 107.682L391.977 124.408L361.967 107.682" fill="#000B0D"/>
<path d="M421.423 107.682L391.977 124.408L361.967 107.682" stroke="white" stroke-width="7.15981" stroke-linecap="round" stroke-linejoin="round"/>
<path d="M391.976 124.408L391.694 157.859" stroke="white" stroke-width="7.15981" stroke-linecap="round" stroke-linejoin="round"/>
<path d="M1155.8 84.3154H1075.6V164.5H1155.8V84.3154Z" fill="#000B0D"/>
<path d="M1145.77 139.849V108.965C1145.77 108.519 1145.66 108.082 1145.43 107.697C1145.2 107.312 1144.88 106.994 1144.49 106.773L1116.93 91.2689C1116.55 91.0548 1116.13 90.9419 1115.7 90.9419C1115.27 90.9419 1114.85 91.0548 1114.48 91.2689L1086.92 106.773C1086.53 106.994 1086.2 107.312 1085.98 107.697C1085.76 108.082 1085.63 108.519 1085.63 108.965V139.849C1085.63 140.296 1085.76 140.733 1085.98 141.118C1086.2 141.502 1086.53 141.821 1086.92 142.042L1114.48 157.546C1114.85 157.76 1115.27 157.873 1115.7 157.873C1116.13 157.873 1116.55 157.76 1116.93 157.546L1144.49 142.042C1144.88 141.821 1145.2 141.502 1145.43 141.118C1145.66 140.733 1145.77 140.296 1145.77 139.849Z" fill="#000B0D" stroke="white" stroke-width="7.15981" stroke-linecap="round" stroke-linejoin="round"/>
<path d="M1145.43 107.682L1115.99 124.408L1085.98 107.682" fill="#000B0D"/>
<path d="M1145.43 107.682L1115.99 124.408L1085.98 107.682" stroke="white" stroke-width="7.15981" stroke-linecap="round" stroke-linejoin="round"/>
<path d="M1115.99 124.408L1115.7 157.859" stroke="white" stroke-width="7.15981" stroke-linecap="round" stroke-linejoin="round"/>
<path d="M576.676 84.3154H496.481V164.5H576.676V84.3154Z" fill="#000B0D"/>
<path d="M566.652 139.849V108.965C566.649 108.519 566.529 108.082 566.303 107.697C566.079 107.312 565.755 106.994 565.367 106.773L537.8 91.2689C537.429 91.0548 537.008 90.9419 536.579 90.9419C536.15 90.9419 535.728 91.0548 535.357 91.2689L507.79 106.773C507.402 106.994 507.079 107.312 506.854 107.697C506.628 108.082 506.508 108.519 506.505 108.965V139.849C506.508 140.296 506.628 140.733 506.854 141.118C507.079 141.502 507.402 141.821 507.79 142.042L535.357 157.546C535.728 157.76 536.15 157.873 536.579 157.873C537.008 157.873 537.429 157.76 537.8 157.546L565.367 142.042C565.755 141.821 566.079 141.502 566.303 141.118C566.529 140.733 566.649 140.296 566.652 139.849Z" fill="#000B0D" stroke="white" stroke-width="7.15981" stroke-linecap="round" stroke-linejoin="round"/>
<path d="M566.308 107.682L536.861 124.408L506.851 107.682" fill="#000B0D"/>
<path d="M566.308 107.682L536.861 124.408L506.851 107.682" stroke="white" stroke-width="7.15981" stroke-linecap="round" stroke-linejoin="round"/>
<path d="M536.861 124.408L536.579 157.859" stroke="white" stroke-width="7.15981" stroke-linecap="round" stroke-linejoin="round"/>
<path d="M1300.68 84.3154H1220.5V164.5H1300.68V84.3154Z" fill="#000B0D"/>
<path d="M1290.67 139.849V108.965C1290.66 108.519 1290.54 108.082 1290.32 107.697C1290.09 107.312 1289.77 106.994 1289.37 106.773L1261.81 91.2689C1261.44 91.0548 1261.01 90.9419 1260.58 90.9419C1260.16 90.9419 1259.74 91.0548 1259.37 91.2689L1231.8 106.773C1231.41 106.994 1231.09 107.312 1230.86 107.697C1230.64 108.082 1230.52 108.519 1230.51 108.965V139.849C1230.52 140.296 1230.64 140.733 1230.86 141.118C1231.09 141.502 1231.41 141.821 1231.8 142.042L1259.37 157.546C1259.74 157.76 1260.16 157.873 1260.58 157.873C1261.01 157.873 1261.44 157.76 1261.81 157.546L1289.37 142.042C1289.77 141.821 1290.09 141.502 1290.32 141.118C1290.54 140.733 1290.66 140.296 1290.67 139.849Z" fill="#000B0D" stroke="white" stroke-width="7.15981" stroke-linecap="round" stroke-linejoin="round"/>
<path d="M1290.32 107.682L1260.87 124.408L1230.86 107.682" fill="#000B0D"/>
<path d="M1290.32 107.682L1260.87 124.408L1230.86 107.682" stroke="white" stroke-width="7.15981" stroke-linecap="round" stroke-linejoin="round"/>
<path d="M1260.87 124.408L1260.58 157.859" stroke="white" stroke-width="7.15981" stroke-linecap="round" stroke-linejoin="round"/>
<path d="M721.561 84.3154H641.367V164.5H721.561V84.3154Z" fill="#000B0D"/>
<path d="M711.537 139.849V108.965C711.534 108.519 711.414 108.082 711.189 107.697C710.963 107.312 710.641 106.994 710.253 106.773L682.685 91.2689C682.314 91.0548 681.892 90.9419 681.463 90.9419C681.035 90.9419 680.613 91.0548 680.242 91.2689L652.675 106.773C652.287 106.994 651.964 107.312 651.738 107.697C651.513 108.082 651.393 108.519 651.391 108.965V139.849C651.393 140.296 651.513 140.733 651.738 141.118C651.964 141.502 652.287 141.821 652.675 142.042L680.242 157.546C680.613 157.76 681.035 157.873 681.463 157.873C681.892 157.873 682.314 157.76 682.685 157.546L710.253 142.042C710.641 141.821 710.963 141.502 711.189 141.118C711.414 140.733 711.534 140.296 711.537 139.849Z" fill="#000B0D" stroke="white" stroke-width="7.15981" stroke-linecap="round" stroke-linejoin="round"/>
<path d="M711.193 107.682L681.746 124.408L651.736 107.682" fill="#000B0D"/>
<path d="M711.193 107.682L681.746 124.408L651.736 107.682" stroke="white" stroke-width="7.15981" stroke-linecap="round" stroke-linejoin="round"/>
<path d="M681.745 124.408L681.463 157.859" stroke="white" stroke-width="7.15981" stroke-linecap="round" stroke-linejoin="round"/>
<path d="M0 248.047H1362" stroke="white" stroke-width="7.15981" stroke-linecap="round"/>
<path d="M142.023 207.955H61.8276V288.14H142.023V207.955Z" fill="#000B0D"/>
<path d="M131.998 263.489V232.605C131.996 232.159 131.876 231.722 131.65 231.336C131.424 230.952 131.101 230.633 130.713 230.413L103.146 214.909C102.775 214.694 102.353 214.582 101.925 214.582C101.496 214.582 101.075 214.694 100.703 214.909L73.1364 230.413C72.7484 230.633 72.4253 230.952 72.1998 231.336C71.9744 231.722 71.8544 232.159 71.852 232.605V263.489C71.8544 263.935 71.9744 264.372 72.1998 264.758C72.4253 265.142 72.7484 265.461 73.1364 265.681L100.703 281.186C101.075 281.4 101.496 281.513 101.925 281.513C102.353 281.513 102.775 281.4 103.146 281.186L130.713 265.681C131.101 265.461 131.424 265.142 131.65 264.758C131.876 264.372 131.996 263.935 131.998 263.489Z" fill="#000B0D" stroke="white" stroke-width="7.15981" stroke-linecap="round" stroke-linejoin="round"/>
<path d="M131.653 231.321L102.207 248.048L72.1971 231.321" fill="#000B0D"/>
<path d="M131.653 231.321L102.207 248.048L72.1971 231.321" stroke="white" stroke-width="7.15981" stroke-linecap="round" stroke-linejoin="round"/>
<path d="M102.206 248.047L101.925 281.499" stroke="white" stroke-width="7.15981" stroke-linecap="round" stroke-linejoin="round"/>
<path d="M866.033 207.955H785.838V288.14H866.033V207.955Z" fill="#000B0D"/>
<path d="M856.008 263.489V232.605C856.006 232.159 855.886 231.722 855.66 231.336C855.435 230.952 855.112 230.633 854.724 230.413L827.157 214.909C826.786 214.694 826.364 214.582 825.936 214.582C825.506 214.582 825.085 214.694 824.713 214.909L797.147 230.413C796.759 230.633 796.436 230.952 796.21 231.336C795.985 231.722 795.865 232.159 795.862 232.605V263.489C795.865 263.935 795.985 264.372 796.21 264.758C796.436 265.142 796.759 265.461 797.147 265.681L824.713 281.186C825.085 281.4 825.506 281.513 825.936 281.513C826.364 281.513 826.786 281.4 827.157 281.186L854.724 265.681C855.112 265.461 855.435 265.142 855.66 264.758C855.886 264.372 856.006 263.935 856.008 263.489Z" fill="#000B0D" stroke="white" stroke-width="7.15981" stroke-linecap="round" stroke-linejoin="round"/>
<path d="M855.664 231.321L826.218 248.048L796.207 231.321" fill="#000B0D"/>
<path d="M855.664 231.321L826.218 248.048L796.207 231.321" stroke="white" stroke-width="7.15981" stroke-linecap="round" stroke-linejoin="round"/>
<path d="M826.217 248.047L825.936 281.499" stroke="white" stroke-width="7.15981" stroke-linecap="round" stroke-linejoin="round"/>
<path d="M286.907 207.955H206.712V288.14H286.907V207.955Z" fill="#000B0D"/>
<path d="M276.883 263.489V232.605C276.88 232.159 276.76 231.722 276.534 231.336C276.309 230.952 275.986 230.633 275.598 230.413L248.031 214.909C247.66 214.694 247.239 214.582 246.81 214.582C246.38 214.582 245.959 214.694 245.588 214.909L218.021 230.413C217.633 230.633 217.31 230.952 217.085 231.336C216.859 231.722 216.739 232.159 216.736 232.605V263.489C216.739 263.935 216.859 264.372 217.085 264.758C217.31 265.142 217.633 265.461 218.021 265.681L245.588 281.186C245.959 281.4 246.38 281.513 246.81 281.513C247.239 281.513 247.66 281.4 248.031 281.186L275.598 265.681C275.986 265.461 276.309 265.142 276.534 264.758C276.76 264.372 276.88 263.935 276.883 263.489Z" fill="#000B0D" stroke="white" stroke-width="7.15981" stroke-linecap="round" stroke-linejoin="round"/>
<path d="M276.539 231.321L247.092 248.048L217.082 231.321" fill="#000B0D"/>
<path d="M276.539 231.321L247.092 248.048L217.082 231.321" stroke="white" stroke-width="7.15981" stroke-linecap="round" stroke-linejoin="round"/>
<path d="M247.092 248.047L246.81 281.499" stroke="white" stroke-width="7.15981" stroke-linecap="round" stroke-linejoin="round"/>
<path d="M1010.92 207.955H930.721V288.14H1010.92V207.955Z" fill="#000B0D"/>
<path d="M1000.89 263.489V232.605C1000.89 232.159 1000.77 231.722 1000.54 231.336C1000.32 230.952 999.995 230.633 999.609 230.413L972.038 214.909C971.671 214.694 971.249 214.582 970.819 214.582C970.389 214.582 969.968 214.694 969.601 214.909L942.029 230.413C941.644 230.633 941.321 230.952 941.097 231.336C940.873 231.722 940.748 232.159 940.748 232.605V263.489C940.748 263.935 940.873 264.372 941.097 264.758C941.321 265.142 941.644 265.461 942.029 265.681L969.601 281.186C969.968 281.4 970.389 281.513 970.819 281.513C971.249 281.513 971.671 281.4 972.038 281.186L999.609 265.681C999.995 265.461 1000.32 265.142 1000.54 264.758C1000.77 264.372 1000.89 263.935 1000.89 263.489Z" fill="#000B0D" stroke="white" stroke-width="7.15981" stroke-linecap="round" stroke-linejoin="round"/>
<path d="M1000.55 231.321L971.106 248.048L941.088 231.321" fill="#000B0D"/>
<path d="M1000.55 231.321L971.106 248.048L941.088 231.321" stroke="white" stroke-width="7.15981" stroke-linecap="round" stroke-linejoin="round"/>
<path d="M971.106 248.047L970.819 281.499" stroke="white" stroke-width="7.15981" stroke-linecap="round" stroke-linejoin="round"/>
<path d="M431.792 207.955H351.598V288.14H431.792V207.955Z" fill="#000B0D"/>
<path d="M421.767 263.489V232.605C421.765 232.159 421.645 231.722 421.42 231.336C421.194 230.952 420.871 230.633 420.483 230.413L392.916 214.909C392.545 214.694 392.123 214.582 391.694 214.582C391.266 214.582 390.844 214.694 390.473 214.909L362.906 230.413C362.518 230.633 362.195 230.952 361.969 231.336C361.744 231.722 361.624 232.159 361.622 232.605V263.489C361.624 263.935 361.744 264.372 361.969 264.758C362.195 265.142 362.518 265.461 362.906 265.681L390.473 281.186C390.844 281.4 391.266 281.513 391.694 281.513C392.123 281.513 392.545 281.4 392.916 281.186L420.483 265.681C420.871 265.461 421.194 265.142 421.42 264.758C421.645 264.372 421.765 263.935 421.767 263.489Z" fill="#000B0D" stroke="white" stroke-width="7.15981" stroke-linecap="round" stroke-linejoin="round"/>
<path d="M421.423 231.321L391.977 248.048L361.967 231.321" fill="#000B0D"/>
<path d="M421.423 231.321L391.977 248.048L361.967 231.321" stroke="white" stroke-width="7.15981" stroke-linecap="round" stroke-linejoin="round"/>
<path d="M391.976 248.047L391.694 281.499" stroke="white" stroke-width="7.15981" stroke-linecap="round" stroke-linejoin="round"/>
<path d="M1155.8 207.955H1075.6V288.14H1155.8V207.955Z" fill="#000B0D"/>
<path d="M1145.77 263.489V232.605C1145.77 232.159 1145.66 231.722 1145.43 231.336C1145.2 230.952 1144.88 230.633 1144.49 230.413L1116.93 214.909C1116.55 214.694 1116.13 214.582 1115.7 214.582C1115.27 214.582 1114.85 214.694 1114.48 214.909L1086.92 230.413C1086.53 230.633 1086.2 230.952 1085.98 231.336C1085.76 231.722 1085.63 232.159 1085.63 232.605V263.489C1085.63 263.935 1085.76 264.372 1085.98 264.758C1086.2 265.142 1086.53 265.461 1086.92 265.681L1114.48 281.186C1114.85 281.4 1115.27 281.513 1115.7 281.513C1116.13 281.513 1116.55 281.4 1116.93 281.186L1144.49 265.681C1144.88 265.461 1145.2 265.142 1145.43 264.758C1145.66 264.372 1145.77 263.935 1145.77 263.489Z" fill="#000B0D" stroke="white" stroke-width="7.15981" stroke-linecap="round" stroke-linejoin="round"/>
<path d="M1145.43 231.321L1115.99 248.048L1085.98 231.321" fill="#000B0D"/>
<path d="M1145.43 231.321L1115.99 248.048L1085.98 231.321" stroke="white" stroke-width="7.15981" stroke-linecap="round" stroke-linejoin="round"/>
<path d="M1115.99 248.047L1115.7 281.499" stroke="white" stroke-width="7.15981" stroke-linecap="round" stroke-linejoin="round"/>
<path d="M576.676 207.955H496.481V288.14H576.676V207.955Z" fill="#000B0D"/>
<path d="M566.652 263.489V232.605C566.649 232.159 566.529 231.722 566.303 231.336C566.079 230.952 565.755 230.633 565.367 230.413L537.8 214.909C537.429 214.694 537.008 214.582 536.579 214.582C536.15 214.582 535.728 214.694 535.357 214.909L507.79 230.413C507.402 230.633 507.079 230.952 506.854 231.336C506.628 231.722 506.508 232.159 506.505 232.605V263.489C506.508 263.935 506.628 264.372 506.854 264.758C507.079 265.142 507.402 265.461 507.79 265.681L535.357 281.186C535.728 281.4 536.15 281.513 536.579 281.513C537.008 281.513 537.429 281.4 537.8 281.186L565.367 265.681C565.755 265.461 566.079 265.142 566.303 264.758C566.529 264.372 566.649 263.935 566.652 263.489Z" fill="#000B0D" stroke="white" stroke-width="7.15981" stroke-linecap="round" stroke-linejoin="round"/>
<path d="M566.308 231.321L536.861 248.048L506.851 231.321" fill="#000B0D"/>
<path d="M566.308 231.321L536.861 248.048L506.851 231.321" stroke="white" stroke-width="7.15981" stroke-linecap="round" stroke-linejoin="round"/>
<path d="M536.861 248.047L536.579 281.499" stroke="white" stroke-width="7.15981" stroke-linecap="round" stroke-linejoin="round"/>
<path d="M1300.68 207.955H1220.5V288.14H1300.68V207.955Z" fill="#000B0D"/>
<path d="M1290.67 263.489V232.605C1290.66 232.159 1290.54 231.722 1290.32 231.336C1290.09 230.952 1289.77 230.633 1289.37 230.413L1261.81 214.909C1261.44 214.694 1261.01 214.582 1260.58 214.582C1260.16 214.582 1259.74 214.694 1259.37 214.909L1231.8 230.413C1231.41 230.633 1231.09 230.952 1230.86 231.336C1230.64 231.722 1230.52 232.159 1230.51 232.605V263.489C1230.52 263.935 1230.64 264.372 1230.86 264.758C1231.09 265.142 1231.41 265.461 1231.8 265.681L1259.37 281.186C1259.74 281.4 1260.16 281.513 1260.58 281.513C1261.01 281.513 1261.44 281.4 1261.81 281.186L1289.37 265.681C1289.77 265.461 1290.09 265.142 1290.32 264.758C1290.54 264.372 1290.66 263.935 1290.67 263.489Z" fill="#000B0D" stroke="white" stroke-width="7.15981" stroke-linecap="round" stroke-linejoin="round"/>
<path d="M1290.32 231.321L1260.87 248.048L1230.86 231.321" fill="#000B0D"/>
<path d="M1290.32 231.321L1260.87 248.048L1230.86 231.321" stroke="white" stroke-width="7.15981" stroke-linecap="round" stroke-linejoin="round"/>
<path d="M1260.87 248.047L1260.58 281.499" stroke="white" stroke-width="7.15981" stroke-linecap="round" stroke-linejoin="round"/>
<path d="M721.561 207.955H641.367V288.14H721.561V207.955Z" fill="#000B0D"/>
<path d="M711.537 263.489V232.605C711.534 232.159 711.414 231.722 711.189 231.336C710.963 230.952 710.641 230.633 710.253 230.413L682.685 214.909C682.314 214.694 681.892 214.582 681.463 214.582C681.035 214.582 680.613 214.694 680.242 214.909L652.675 230.413C652.287 230.633 651.964 230.952 651.738 231.336C651.513 231.722 651.393 232.159 651.391 232.605V263.489C651.393 263.935 651.513 264.372 651.738 264.758C651.964 265.142 652.287 265.461 652.675 265.681L680.242 281.186C680.613 281.4 681.035 281.513 681.463 281.513C681.892 281.513 682.314 281.4 682.685 281.186L710.253 265.681C710.641 265.461 710.963 265.142 711.189 264.758C711.414 264.372 711.534 263.935 711.537 263.489Z" fill="#000B0D" stroke="white" stroke-width="7.15981" stroke-linecap="round" stroke-linejoin="round"/>
<path d="M711.193 231.321L681.746 248.048L651.736 231.321" fill="#000B0D"/>
<path d="M711.193 231.321L681.746 248.048L651.736 231.321" stroke="white" stroke-width="7.15981" stroke-linecap="round" stroke-linejoin="round"/>
<path d="M681.745 248.047L681.463 281.499" stroke="white" stroke-width="7.15981" stroke-linecap="round" stroke-linejoin="round"/>
<path opacity="0.2" d="M681.448 58.3335L1063.63 492.416H299.265L681.448 58.3335Z" fill="white"/>
<path d="M628.133 66.9494V9.05664H645.376V17.6451H637.422V58.361H645.376V66.9494H628.133Z" fill="white"/>
<path d="M628.133 66.9494V9.05664H645.376V17.6451H637.422V58.361H645.376V66.9494H628.133Z" fill="url(#paint0_radial_55_455)"/>
<path d="M628.133 66.9494V9.05664H645.376V17.6451H637.422V58.361H645.376V66.9494H628.133Z" fill="url(#paint1_radial_55_455)"/>
<path d="M628.133 66.9494V9.05664H645.376V17.6451H637.422V58.361H645.376V66.9494H628.133Z" fill="url(#paint2_radial_55_455)"/>
<path d="M681.869 56.2614C679.282 56.2614 676.907 55.6888 674.743 54.5437C672.623 53.3986 670.926 51.8082 669.653 49.7723C668.423 47.7366 667.808 45.3191 667.808 42.5199V23.1163C667.808 22.4377 667.638 21.8226 667.299 21.2713C666.96 20.72 666.514 20.2746 665.962 19.9353C665.411 19.596 664.797 19.4263 664.117 19.4263C663.439 19.4263 662.824 19.596 662.272 19.9353C661.721 20.2746 661.276 20.72 660.936 21.2713C660.639 21.8226 660.491 22.4377 660.491 23.1163V55.498H650.057V23.8797C650.057 21.2076 650.65 18.8538 651.838 16.818C653.068 14.7822 654.743 13.1705 656.864 11.983C659.028 10.7955 661.445 10.2017 664.117 10.2017C666.832 10.2017 669.25 10.7955 671.371 11.983C673.492 13.1705 675.168 14.7822 676.398 16.818C677.627 18.8538 678.243 21.2076 678.243 23.8797V43.2833C678.243 44.0043 678.412 44.6405 678.752 45.1918C679.091 45.7432 679.515 46.1885 680.024 46.5278C680.576 46.8247 681.169 46.9731 681.806 46.9731C682.485 46.9731 683.099 46.8247 683.651 46.5278C684.245 46.1885 684.711 45.7432 685.051 45.1918C685.39 44.6405 685.56 44.0043 685.56 43.2833V23.8797C685.56 21.2076 686.175 18.8538 687.405 16.818C688.635 14.7822 690.311 13.1705 692.432 11.983C694.595 10.7955 696.991 10.2017 699.621 10.2017C702.336 10.2017 704.733 10.7955 706.811 11.983C708.932 13.1705 710.607 14.7822 711.838 16.818C713.068 18.8538 713.683 21.2076 713.683 23.8797V55.498H703.248V23.0527C703.248 22.374 703.079 21.7802 702.739 21.2713C702.442 20.72 702.018 20.2746 701.467 19.9353C700.915 19.596 700.3 19.4263 699.621 19.4263C698.985 19.4263 698.37 19.596 697.776 19.9353C697.225 20.2746 696.779 20.72 696.44 21.2713C696.1 21.7802 695.931 22.374 695.931 23.0527V42.5199C695.931 45.3191 695.295 47.7366 694.022 49.7723C692.75 51.8082 691.053 53.3986 688.932 54.5437C686.811 55.6888 684.457 56.2614 681.869 56.2614Z" fill="white"/>
<path d="M681.869 56.2614C679.282 56.2614 676.907 55.6888 674.743 54.5437C672.623 53.3986 670.926 51.8082 669.653 49.7723C668.423 47.7366 667.808 45.3191 667.808 42.5199V23.1163C667.808 22.4377 667.638 21.8226 667.299 21.2713C666.96 20.72 666.514 20.2746 665.962 19.9353C665.411 19.596 664.797 19.4263 664.117 19.4263C663.439 19.4263 662.824 19.596 662.272 19.9353C661.721 20.2746 661.276 20.72 660.936 21.2713C660.639 21.8226 660.491 22.4377 660.491 23.1163V55.498H650.057V23.8797C650.057 21.2076 650.65 18.8538 651.838 16.818C653.068 14.7822 654.743 13.1705 656.864 11.983C659.028 10.7955 661.445 10.2017 664.117 10.2017C666.832 10.2017 669.25 10.7955 671.371 11.983C673.492 13.1705 675.168 14.7822 676.398 16.818C677.627 18.8538 678.243 21.2076 678.243 23.8797V43.2833C678.243 44.0043 678.412 44.6405 678.752 45.1918C679.091 45.7432 679.515 46.1885 680.024 46.5278C680.576 46.8247 681.169 46.9731 681.806 46.9731C682.485 46.9731 683.099 46.8247 683.651 46.5278C684.245 46.1885 684.711 45.7432 685.051 45.1918C685.39 44.6405 685.56 44.0043 685.56 43.2833V23.8797C685.56 21.2076 686.175 18.8538 687.405 16.818C688.635 14.7822 690.311 13.1705 692.432 11.983C694.595 10.7955 696.991 10.2017 699.621 10.2017C702.336 10.2017 704.733 10.7955 706.811 11.983C708.932 13.1705 710.607 14.7822 711.838 16.818C713.068 18.8538 713.683 21.2076 713.683 23.8797V55.498H703.248V23.0527C703.248 22.374 703.079 21.7802 702.739 21.2713C702.442 20.72 702.018 20.2746 701.467 19.9353C700.915 19.596 700.3 19.4263 699.621 19.4263C698.985 19.4263 698.37 19.596 697.776 19.9353C697.225 20.2746 696.779 20.72 696.44 21.2713C696.1 21.7802 695.931 22.374 695.931 23.0527V42.5199C695.931 45.3191 695.295 47.7366 694.022 49.7723C692.75 51.8082 691.053 53.3986 688.932 54.5437C686.811 55.6888 684.457 56.2614 681.869 56.2614Z" fill="url(#paint3_radial_55_455)"/>
<path d="M681.869 56.2614C679.282 56.2614 676.907 55.6888 674.743 54.5437C672.623 53.3986 670.926 51.8082 669.653 49.7723C668.423 47.7366 667.808 45.3191 667.808 42.5199V23.1163C667.808 22.4377 667.638 21.8226 667.299 21.2713C666.96 20.72 666.514 20.2746 665.962 19.9353C665.411 19.596 664.797 19.4263 664.117 19.4263C663.439 19.4263 662.824 19.596 662.272 19.9353C661.721 20.2746 661.276 20.72 660.936 21.2713C660.639 21.8226 660.491 22.4377 660.491 23.1163V55.498H650.057V23.8797C650.057 21.2076 650.65 18.8538 651.838 16.818C653.068 14.7822 654.743 13.1705 656.864 11.983C659.028 10.7955 661.445 10.2017 664.117 10.2017C666.832 10.2017 669.25 10.7955 671.371 11.983C673.492 13.1705 675.168 14.7822 676.398 16.818C677.627 18.8538 678.243 21.2076 678.243 23.8797V43.2833C678.243 44.0043 678.412 44.6405 678.752 45.1918C679.091 45.7432 679.515 46.1885 680.024 46.5278C680.576 46.8247 681.169 46.9731 681.806 46.9731C682.485 46.9731 683.099 46.8247 683.651 46.5278C684.245 46.1885 684.711 45.7432 685.051 45.1918C685.39 44.6405 685.56 44.0043 685.56 43.2833V23.8797C685.56 21.2076 686.175 18.8538 687.405 16.818C688.635 14.7822 690.311 13.1705 692.432 11.983C694.595 10.7955 696.991 10.2017 699.621 10.2017C702.336 10.2017 704.733 10.7955 706.811 11.983C708.932 13.1705 710.607 14.7822 711.838 16.818C713.068 18.8538 713.683 21.2076 713.683 23.8797V55.498H703.248V23.0527C703.248 22.374 703.079 21.7802 702.739 21.2713C702.442 20.72 702.018 20.2746 701.467 19.9353C700.915 19.596 700.3 19.4263 699.621 19.4263C698.985 19.4263 698.37 19.596 697.776 19.9353C697.225 20.2746 696.779 20.72 696.44 21.2713C696.1 21.7802 695.931 22.374 695.931 23.0527V42.5199C695.931 45.3191 695.295 47.7366 694.022 49.7723C692.75 51.8082 691.053 53.3986 688.932 54.5437C686.811 55.6888 684.457 56.2614 681.869 56.2614Z" fill="url(#paint4_radial_55_455)"/>
<path d="M681.869 56.2614C679.282 56.2614 676.907 55.6888 674.743 54.5437C672.623 53.3986 670.926 51.8082 669.653 49.7723C668.423 47.7366 667.808 45.3191 667.808 42.5199V23.1163C667.808 22.4377 667.638 21.8226 667.299 21.2713C666.96 20.72 666.514 20.2746 665.962 19.9353C665.411 19.596 664.797 19.4263 664.117 19.4263C663.439 19.4263 662.824 19.596 662.272 19.9353C661.721 20.2746 661.276 20.72 660.936 21.2713C660.639 21.8226 660.491 22.4377 660.491 23.1163V55.498H650.057V23.8797C650.057 21.2076 650.65 18.8538 651.838 16.818C653.068 14.7822 654.743 13.1705 656.864 11.983C659.028 10.7955 661.445 10.2017 664.117 10.2017C666.832 10.2017 669.25 10.7955 671.371 11.983C673.492 13.1705 675.168 14.7822 676.398 16.818C677.627 18.8538 678.243 21.2076 678.243 23.8797V43.2833C678.243 44.0043 678.412 44.6405 678.752 45.1918C679.091 45.7432 679.515 46.1885 680.024 46.5278C680.576 46.8247 681.169 46.9731 681.806 46.9731C682.485 46.9731 683.099 46.8247 683.651 46.5278C684.245 46.1885 684.711 45.7432 685.051 45.1918C685.39 44.6405 685.56 44.0043 685.56 43.2833V23.8797C685.56 21.2076 686.175 18.8538 687.405 16.818C688.635 14.7822 690.311 13.1705 692.432 11.983C694.595 10.7955 696.991 10.2017 699.621 10.2017C702.336 10.2017 704.733 10.7955 706.811 11.983C708.932 13.1705 710.607 14.7822 711.838 16.818C713.068 18.8538 713.683 21.2076 713.683 23.8797V55.498H703.248V23.0527C703.248 22.374 703.079 21.7802 702.739 21.2713C702.442 20.72 702.018 20.2746 701.467 19.9353C700.915 19.596 700.3 19.4263 699.621 19.4263C698.985 19.4263 698.37 19.596 697.776 19.9353C697.225 20.2746 696.779 20.72 696.44 21.2713C696.1 21.7802 695.931 22.374 695.931 23.0527V42.5199C695.931 45.3191 695.295 47.7366 694.022 49.7723C692.75 51.8082 691.053 53.3986 688.932 54.5437C686.811 55.6888 684.457 56.2614 681.869 56.2614Z" fill="url(#paint5_radial_55_455)"/>
<path d="M718.417 66.9494V58.361H726.37V17.6451H718.417V9.05664H735.659V66.9494H718.417Z" fill="white"/>
<path d="M718.417 66.9494V58.361H726.37V17.6451H718.417V9.05664H735.659V66.9494H718.417Z" fill="url(#paint6_radial_55_455)"/>
<path d="M718.417 66.9494V58.361H726.37V17.6451H718.417V9.05664H735.659V66.9494H718.417Z" fill="url(#paint7_radial_55_455)"/>
<path d="M718.417 66.9494V58.361H726.37V17.6451H718.417V9.05664H735.659V66.9494H718.417Z" fill="url(#paint8_radial_55_455)"/>
<path d="M744.396 140.76L722.442 162.71L711.466 151.735" stroke="#3ACCB2" stroke-width="8" stroke-linecap="round" stroke-linejoin="round"/>
<path d="M741.708 259.248L713.482 287.47" stroke="#EC2B65" stroke-width="8" stroke-linecap="round" stroke-linejoin="round"/>
<path d="M741.708 287.47L713.482 259.248" stroke="#EC2B65" stroke-width="8" stroke-linecap="round" stroke-linejoin="round"/>
</g>
<defs>
<radialGradient id="paint0_radial_55_455" cx="0" cy="0" r="1" gradientUnits="userSpaceOnUse" gradientTransform="translate(628.133 9.05664) scale(107.369 199.371)">
<stop stop-color="#00E0FF"/>
<stop offset="1" stop-color="#00E0FF" stop-opacity="0"/>
</radialGradient>
<radialGradient id="paint1_radial_55_455" cx="0" cy="0" r="1" gradientUnits="userSpaceOnUse" gradientTransform="translate(735.502 66.7109) rotate(-180) scale(107.369 199.371)">
<stop stop-color="#3ACCB2"/>
<stop offset="1" stop-color="#00FFD2" stop-opacity="0"/>
</radialGradient>
<radialGradient id="paint2_radial_55_455" cx="0" cy="0" r="1" gradientUnits="userSpaceOnUse" gradientTransform="translate(675.853 44.1793) rotate(36.2315) scale(53.8183 99.9419)">
<stop stop-color="#BC49E4"/>
<stop offset="1" stop-color="#BC49E4" stop-opacity="0"/>
</radialGradient>
<radialGradient id="paint3_radial_55_455" cx="0" cy="0" r="1" gradientUnits="userSpaceOnUse" gradientTransform="translate(628.133 9.05655) scale(107.37 199.371)">
<stop stop-color="#00E0FF"/>
<stop offset="1" stop-color="#00E0FF" stop-opacity="0"/>
</radialGradient>
<radialGradient id="paint4_radial_55_455" cx="0" cy="0" r="1" gradientUnits="userSpaceOnUse" gradientTransform="translate(735.502 66.7108) rotate(-180) scale(107.37 199.371)">
<stop stop-color="#3ACCB2"/>
<stop offset="1" stop-color="#00FFD2" stop-opacity="0"/>
</radialGradient>
<radialGradient id="paint5_radial_55_455" cx="0" cy="0" r="1" gradientUnits="userSpaceOnUse" gradientTransform="translate(675.853 44.1793) rotate(36.2314) scale(53.8183 99.942)">
<stop stop-color="#BC49E4"/>
<stop offset="1" stop-color="#BC49E4" stop-opacity="0"/>
</radialGradient>
<radialGradient id="paint6_radial_55_455" cx="0" cy="0" r="1" gradientUnits="userSpaceOnUse" gradientTransform="translate(628.133 9.05664) scale(107.369 199.371)">
<stop stop-color="#00E0FF"/>
<stop offset="1" stop-color="#00E0FF" stop-opacity="0"/>
</radialGradient>
<radialGradient id="paint7_radial_55_455" cx="0" cy="0" r="1" gradientUnits="userSpaceOnUse" gradientTransform="translate(735.502 66.7109) rotate(-180) scale(107.369 199.371)">
<stop stop-color="#3ACCB2"/>
<stop offset="1" stop-color="#00FFD2" stop-opacity="0"/>
</radialGradient>
<radialGradient id="paint8_radial_55_455" cx="0" cy="0" r="1" gradientUnits="userSpaceOnUse" gradientTransform="translate(675.853 44.1793) rotate(36.2315) scale(53.8183 99.9419)">
<stop stop-color="#BC49E4"/>
<stop offset="1" stop-color="#BC49E4" stop-opacity="0"/>
</radialGradient>
<clipPath id="clip0_55_455">
<rect width="1362" height="353" fill="white" transform="translate(0 0.993164)"/>
</clipPath>
</defs>
</svg>
