<svg width="1294" height="201" viewBox="0 0 1294 201" fill="none" xmlns="http://www.w3.org/2000/svg">
<path d="M4.97827 133.816H1289.02" stroke="white" stroke-width="9" stroke-linecap="round"/>
<path d="M228.095 66.6394H93.6875V200.993H228.095V66.6394Z" fill="#000B0D"/>
<path d="M211.294 159.689V107.942C211.291 107.194 211.089 106.462 210.711 105.817C210.334 105.171 209.792 104.637 209.142 104.268L162.939 78.2896C162.316 77.9304 161.61 77.7415 160.891 77.7415C160.173 77.7415 159.467 77.9304 158.844 78.2896L112.641 104.268C111.991 104.637 111.449 105.171 111.072 105.817C110.694 106.462 110.492 107.194 110.488 107.942V159.689C110.492 160.437 110.694 161.17 111.072 161.815C111.449 162.46 111.991 162.994 112.641 163.363L158.844 189.342C159.467 189.701 160.173 189.89 160.891 189.89C161.61 189.89 162.316 189.701 162.939 189.342L209.142 163.363C209.792 162.994 210.334 162.46 210.711 161.815C211.089 161.17 211.291 160.437 211.294 159.689Z" fill="#000B0D" stroke="white" stroke-width="12" stroke-linecap="round" stroke-linejoin="round"/>
<path d="M210.717 105.791L161.365 133.816L111.066 105.791" fill="#000B0D"/>
<path d="M210.717 105.791L161.365 133.816L111.066 105.791" stroke="white" stroke-width="12" stroke-linecap="round" stroke-linejoin="round"/>
<path d="M161.364 133.816L160.891 189.867" stroke="white" stroke-width="12" stroke-linecap="round" stroke-linejoin="round"/>
<path d="M470.926 66.6394H336.518V200.993H470.926V66.6394Z" fill="#000B0D"/>
<path d="M454.125 159.689V107.942C454.121 107.194 453.919 106.462 453.541 105.817C453.164 105.171 452.622 104.637 451.972 104.268L405.769 78.2896C405.146 77.9304 404.44 77.7415 403.722 77.7415C403.003 77.7415 402.297 77.9304 401.674 78.2896L355.471 104.268C354.821 104.637 354.279 105.171 353.902 105.817C353.524 106.462 353.322 107.194 353.319 107.942V159.689C353.322 160.437 353.524 161.17 353.902 161.815C354.279 162.46 354.821 162.994 355.471 163.363L401.674 189.342C402.297 189.701 403.003 189.89 403.722 189.89C404.44 189.89 405.146 189.701 405.769 189.342L451.972 163.363C452.622 162.994 453.164 162.46 453.541 161.815C453.919 161.17 454.121 160.437 454.125 159.689Z" fill="#000B0D" stroke="white" stroke-width="12" stroke-linecap="round" stroke-linejoin="round"/>
<path d="M453.548 105.791L404.195 133.816L353.897 105.791" fill="#000B0D"/>
<path d="M453.548 105.791L404.195 133.816L353.897 105.791" stroke="white" stroke-width="12" stroke-linecap="round" stroke-linejoin="round"/>
<path d="M404.194 133.816L403.722 189.867" stroke="white" stroke-width="12" stroke-linecap="round" stroke-linejoin="round"/>
<path d="M713.756 66.6394H579.348V200.993H713.756V66.6394Z" fill="#000B0D"/>
<path d="M696.955 159.689V107.942C696.951 107.194 696.75 106.462 696.372 105.817C695.994 105.171 695.452 104.637 694.803 104.268L648.599 78.2896C647.977 77.9304 647.271 77.7415 646.552 77.7415C645.833 77.7415 645.127 77.9304 644.504 78.2896L598.301 104.268C597.652 104.637 597.11 105.171 596.732 105.817C596.354 106.462 596.153 107.194 596.149 107.942V159.689C596.153 160.437 596.354 161.17 596.732 161.815C597.11 162.46 597.652 162.994 598.301 163.363L644.504 189.342C645.127 189.701 645.833 189.89 646.552 189.89C647.271 189.89 647.977 189.701 648.599 189.342L694.803 163.363C695.452 162.994 695.994 162.46 696.372 161.815C696.75 161.17 696.951 160.437 696.955 159.689Z" fill="#000B0D" stroke="white" stroke-width="12" stroke-linecap="round" stroke-linejoin="round"/>
<path d="M696.378 105.791L647.025 133.816L596.727 105.791" fill="#000B0D"/>
<path d="M696.378 105.791L647.025 133.816L596.727 105.791" stroke="white" stroke-width="12" stroke-linecap="round" stroke-linejoin="round"/>
<path d="M647.024 133.816L646.552 189.867" stroke="white" stroke-width="12" stroke-linecap="round" stroke-linejoin="round"/>
<path d="M956.586 66.6394H822.178V200.993H956.586V66.6394Z" fill="#000B0D"/>
<path d="M939.785 159.689V107.942C939.785 107.194 939.579 106.462 939.203 105.817C938.826 105.171 938.28 104.637 937.635 104.268L891.434 78.2896C890.807 77.9304 890.099 77.7415 889.382 77.7415C888.665 77.7415 887.957 77.9304 887.33 78.2896L841.132 104.268C840.482 104.637 839.94 105.171 839.563 105.817C839.184 106.462 838.983 107.194 838.979 107.942V159.689C838.983 160.437 839.184 161.17 839.563 161.815C839.94 162.46 840.482 162.994 841.132 163.363L887.33 189.342C887.957 189.701 888.665 189.89 889.382 189.89C890.099 189.89 890.807 189.701 891.434 189.342L937.635 163.363C938.28 162.994 938.826 162.46 939.203 161.815C939.579 161.17 939.785 160.437 939.785 159.689Z" fill="#000B0D" stroke="white" stroke-width="12" stroke-linecap="round" stroke-linejoin="round"/>
<path d="M939.212 105.791L889.857 133.816L839.557 105.791" fill="#000B0D"/>
<path d="M939.212 105.791L889.857 133.816L839.557 105.791" stroke="white" stroke-width="12" stroke-linecap="round" stroke-linejoin="round"/>
<path d="M889.857 133.816L889.382 189.867" stroke="white" stroke-width="12" stroke-linecap="round" stroke-linejoin="round"/>
<path d="M1199.42 66.6394H1065.01V200.993H1199.42V66.6394Z" fill="#000B0D"/>
<path d="M1182.62 159.689V107.942C1182.62 107.194 1182.41 106.462 1182.03 105.817C1181.66 105.171 1181.11 104.637 1180.46 104.268L1134.26 78.2896C1133.64 77.9304 1132.93 77.7415 1132.21 77.7415C1131.5 77.7415 1130.79 77.9304 1130.16 78.2896L1083.96 104.268C1083.31 104.637 1082.77 105.171 1082.39 105.817C1082.02 106.462 1081.81 107.194 1081.81 107.942V159.689C1081.81 160.437 1082.02 161.17 1082.39 161.815C1082.77 162.46 1083.31 162.994 1083.96 163.363L1130.16 189.342C1130.79 189.701 1131.5 189.89 1132.21 189.89C1132.93 189.89 1133.64 189.701 1134.26 189.342L1180.46 163.363C1181.11 162.994 1181.66 162.46 1182.03 161.815C1182.41 161.17 1182.62 160.437 1182.62 159.689Z" fill="#000B0D" stroke="white" stroke-width="12" stroke-linecap="round" stroke-linejoin="round"/>
<path d="M1182.04 105.791L1132.69 133.816L1082.39 105.791" fill="#000B0D"/>
<path d="M1182.04 105.791L1132.69 133.816L1082.39 105.791" stroke="white" stroke-width="12" stroke-linecap="round" stroke-linejoin="round"/>
<path d="M1132.69 133.816L1132.21 189.867" stroke="white" stroke-width="12" stroke-linecap="round" stroke-linejoin="round"/>
<path d="M94.476 23.6104L88.1678 23.6463V11.2499H93.7592V8.52699H88.1678V3.04535L84.9778 4.0127V8.52699H81.0352V11.2499H84.9778V23.8254C84.9778 25.5451 85.8022 26.3333 87.4868 26.3333H94.476V23.6104ZM98.5065 26.3333H101.696V18.7737C101.696 13.9728 104.098 10.8916 107.969 10.8916C111.015 10.8916 112.413 12.3247 112.413 15.9791V26.3333H115.567V15.6209C115.567 10.82 113.13 8.16871 109.08 8.16871C105.209 8.16871 102.843 10.4258 102.055 13.6503H101.123L101.696 11.5007V0H98.5065V26.3333ZM119.561 17.4122C119.561 22.7147 123.324 26.6916 129.023 26.6916C134.686 26.6916 138.45 22.7147 138.45 17.4122C138.45 12.1456 134.686 8.16871 129.023 8.16871C123.324 8.16871 119.561 12.1456 119.561 17.4122ZM122.715 17.4122C122.715 13.8295 124.937 10.8916 129.023 10.8916C133.073 10.8916 135.296 13.8295 135.296 17.4122C135.296 21.0308 133.073 23.9687 129.023 23.9687C124.937 23.9687 122.715 21.0308 122.715 17.4122ZM149.129 26.6916C153 26.6916 155.258 24.4345 155.975 21.21H156.835L156.333 23.3238V26.3333H159.487V8.52699H156.333V16.3016C156.333 21.1383 153.717 23.9687 150.025 23.9687C146.978 23.9687 145.581 22.5356 145.581 18.8812V8.52699H142.391V19.3111C142.391 24.2912 145.043 26.6916 149.129 26.6916ZM172.262 26.6916C176.348 26.6916 178.678 24.4703 179.467 21.7116H180.363L179.825 23.8612V26.3333H179.789V30.561H166.886V33.2839H180.506C182.191 33.2839 182.979 32.5315 182.979 31.0984V8.52699H179.825V10.9991L180.363 13.1129H179.467C178.678 10.3542 176.348 8.16871 172.262 8.16871C167.065 8.16871 163.804 12.1456 163.804 17.4122C163.804 22.6789 167.065 26.6916 172.262 26.6916ZM166.994 17.4122C166.994 12.8263 169.646 10.8916 173.266 10.8916C176.886 10.8916 179.825 12.8263 179.825 17.4122C179.825 21.9982 176.886 23.9687 173.266 23.9687C169.646 23.9687 166.994 21.9982 166.994 17.4122ZM199.762 23.6104L193.454 23.6463V11.2499H199.045V8.52699H193.454V3.04535L190.264 4.0127V8.52699H186.321V11.2499H190.264V23.8254C190.264 25.5451 191.088 26.3333 192.773 26.3333H199.762V23.6104ZM203.793 26.3333H206.983V18.7737C206.983 13.9728 209.384 10.8916 213.255 10.8916C216.302 10.8916 217.699 12.3247 217.699 15.9791V26.3333H220.853V15.6209C220.853 10.82 218.416 8.16871 214.366 8.16871C210.495 8.16871 208.13 10.4258 207.341 13.6503H206.409L206.983 11.5007V0H203.793V26.3333ZM232.947 26.6916C237.535 26.6916 239.973 24.8644 239.973 21.6399C239.973 18.8812 238.145 17.4122 235.134 16.5524L230.976 15.3701C229.22 14.8685 228.431 14.1519 228.431 13.0054C228.431 11.429 229.829 10.6408 232.123 10.6408C234.847 10.6408 236.352 11.7873 236.352 14.1519H239.542C239.542 10.2825 236.675 8.16871 232.087 8.16871C227.858 8.16871 225.277 9.92427 225.277 13.0413C225.277 15.8717 227.392 17.1615 229.399 17.7347L234.166 19.132C236.03 19.6336 236.783 20.3501 236.783 21.5683C236.783 23.3955 235.492 24.1837 232.983 24.1837C229.686 24.1837 227.75 22.7147 227.75 19.7769H224.56C224.56 24.1837 227.643 26.6916 232.947 26.6916Z" fill="white"/>
<path d="M321.285 17.1972C321.285 22.4639 324.224 26.6915 330.03 26.6915C335.514 26.6915 337.88 23.3954 338.597 20.0993H335.442C334.833 22.5714 333.041 24.1478 329.994 24.1478C326.303 24.1478 324.475 21.4965 324.367 18.0213H338.525V16.8748C338.525 11.3573 335.084 8.16865 329.815 8.16865C324.726 8.16865 321.285 11.429 321.285 17.1972ZM324.403 15.7641C324.654 12.5396 326.876 10.6766 329.815 10.6766C333.005 10.6766 335.192 12.5396 335.407 15.7641H324.403ZM342.863 26.3333H346.053V18.6303C346.053 13.9727 348.06 10.8916 351.536 10.8916C354.368 10.8916 355.121 12.5038 355.121 15.9433V26.3333H358.311V18.6303C358.311 13.9727 360.318 10.8916 363.794 10.8916C366.626 10.8916 367.379 12.5038 367.379 15.9433V26.3333H370.569V15.2625C370.569 11.214 368.812 8.16865 365.013 8.16865C361.214 8.16865 359.386 10.3541 358.669 13.5786H358.096C357.665 10.39 356.017 8.16865 352.755 8.16865C348.956 8.16865 347.128 10.3541 346.411 13.5786H345.515L346.053 11.429V8.52692H342.863V26.3333ZM374.523 17.4122C374.523 22.7147 378.286 26.6915 383.985 26.6915C389.648 26.6915 393.412 22.7147 393.412 17.4122C393.412 12.1455 389.648 8.16865 383.985 8.16865C378.286 8.16865 374.523 12.1455 374.523 17.4122ZM377.677 17.4122C377.677 13.8294 379.899 10.8916 383.985 10.8916C388.035 10.8916 390.258 13.8294 390.258 17.4122C390.258 21.0308 388.035 23.9686 383.985 23.9686C379.899 23.9686 377.677 21.0308 377.677 17.4122ZM408.766 23.6104L402.458 23.6462V11.2498H408.05V8.52692H402.458V3.04529L399.268 4.01264V8.52692H395.326V11.2498H399.268V23.8253C399.268 25.5451 400.093 26.3333 401.777 26.3333H408.766V23.6104ZM412.152 26.3333H425.019V23.6104H420.037V10.6049C420.037 9.13599 419.32 8.52692 418.03 8.52692H413.406V11.2498H417.098V23.6104H412.152V26.3333ZM415.664 3.08112C415.664 4.4784 416.775 5.48157 418.173 5.48157C419.607 5.48157 420.754 4.4784 420.754 3.08112C420.754 1.68384 419.607 0.680664 418.173 0.680664C416.775 0.680664 415.664 1.68384 415.664 3.08112ZM426.746 17.4122C426.746 22.7147 430.509 26.6915 436.208 26.6915C441.871 26.6915 445.635 22.7147 445.635 17.4122C445.635 12.1455 441.871 8.16865 436.208 8.16865C430.509 8.16865 426.746 12.1455 426.746 17.4122ZM429.9 17.4122C429.9 13.8294 432.122 10.8916 436.208 10.8916C440.258 10.8916 442.48 13.8294 442.48 17.4122C442.48 21.0308 440.258 23.9686 436.208 23.9686C432.122 23.9686 429.9 21.0308 429.9 17.4122ZM449.934 26.3333H453.124V18.5228C453.124 13.7219 455.704 10.8916 459.432 10.8916C462.443 10.8916 463.876 12.2888 463.876 15.9791V26.3333H467.031V15.5491C467.031 10.5333 464.378 8.16865 460.328 8.16865C456.457 8.16865 454.199 10.4258 453.482 13.6503H452.586L453.124 11.5006V8.52692H449.934V26.3333ZM479.089 26.6915C483.676 26.6915 486.114 24.8643 486.114 21.6398C486.114 18.8811 484.286 17.4122 481.275 16.5523L477.117 15.37C475.361 14.8684 474.573 14.1519 474.573 13.0054C474.573 11.429 475.97 10.6408 478.264 10.6408C480.988 10.6408 482.494 11.7872 482.494 14.1519H485.684C485.684 10.2825 482.816 8.16865 478.228 8.16865C473.999 8.16865 471.418 9.9242 471.418 13.0412C471.418 15.8716 473.533 17.1614 475.54 17.7346L480.307 19.1319C482.171 19.6335 482.924 20.3501 482.924 21.5682C482.924 23.3954 481.633 24.1836 479.125 24.1836C475.827 24.1836 473.892 22.7147 473.892 19.7768H470.702C470.702 24.1836 473.784 26.6915 479.089 26.6915Z" fill="white"/>
<path d="M625.298 26.3333H628.918L634.007 18.702H634.652L639.742 26.3333H643.362L637.376 17.3764L643.362 8.52698H639.742L634.652 16.1583H634.007L628.918 8.52698H625.298L631.319 17.3764L625.298 26.3333ZM647.03 33.2839H650.22V23.8612L649.683 21.7116H650.579C651.332 24.4703 653.661 26.6916 657.747 26.6916C662.944 26.6916 666.206 22.6789 666.206 17.4481C666.206 12.1456 662.944 8.1687 657.747 8.1687C653.661 8.1687 651.332 10.3542 650.579 13.1129H649.683L650.22 10.9991V8.52698H647.03V33.2839ZM650.22 17.4481C650.22 12.8263 653.124 10.8916 656.744 10.8916C660.4 10.8916 663.052 12.898 663.052 17.4481C663.052 21.9624 660.4 23.9687 656.744 23.9687C653.124 23.9687 650.22 22.034 650.22 17.4481Z" fill="white"/>
<path d="M870.601 26.6916C875.189 26.6916 877.626 24.8644 877.626 21.6399C877.626 18.8812 875.798 17.4122 872.787 16.5524L868.63 15.3701C866.873 14.8685 866.085 14.1519 866.085 13.0054C866.085 11.429 867.483 10.6408 869.777 10.6408C872.501 10.6408 874.006 11.7873 874.006 14.1519H877.196C877.196 10.2825 874.329 8.16871 869.741 8.16871C865.511 8.16871 862.931 9.92427 862.931 13.0413C862.931 15.8717 865.045 17.1615 867.053 17.7347L871.82 19.132C873.683 19.6336 874.436 20.3501 874.436 21.5683C874.436 23.3955 873.146 24.1837 870.637 24.1837C867.339 24.1837 865.404 22.7147 865.404 19.7769H862.214C862.214 24.1837 865.296 26.6916 870.601 26.6916ZM881.318 26.3333H884.508V23.8612L883.97 21.7116H884.866C885.619 24.4703 887.984 26.6916 892.07 26.6916C897.267 26.6916 900.493 22.6789 900.493 17.4122C900.493 12.1456 897.267 8.16871 892.07 8.16871C887.984 8.16871 885.619 10.3542 884.866 13.1129H883.97L884.508 10.9991V0H881.318V26.3333ZM884.508 17.4122C884.508 12.8263 887.411 10.8916 891.031 10.8916C894.687 10.8916 897.339 12.8263 897.339 17.4122C897.339 21.9982 894.687 23.9687 891.031 23.9687C887.411 23.9687 884.508 21.9982 884.508 17.4122ZM915.887 23.6104L909.579 23.6463V11.2499H915.171V8.52699H909.579V3.04535L906.389 4.0127V8.52699H902.447V11.2499H906.389V23.8254C906.389 25.5451 907.214 26.3333 908.898 26.3333H915.887V23.6104Z" fill="white"/>
<path d="M1102.14 26.6916C1106.23 26.6916 1108.56 24.4703 1109.35 21.7116H1110.24L1109.7 23.8612V26.3333H1112.86V0H1109.7V10.9991L1110.24 13.1129H1109.35C1108.56 10.3542 1106.23 8.16871 1102.14 8.16871C1096.94 8.16871 1093.68 12.1456 1093.68 17.4122C1093.68 22.6789 1096.94 26.6916 1102.14 26.6916ZM1096.87 17.4122C1096.87 12.8263 1099.52 10.8916 1103.14 10.8916C1106.76 10.8916 1109.7 12.8263 1109.7 17.4122C1109.7 21.9982 1106.76 23.9687 1103.14 23.9687C1099.52 23.9687 1096.87 21.9982 1096.87 17.4122ZM1117.17 21.3891C1117.17 23.2522 1117.96 26.6916 1123.19 26.6916C1127.53 26.6916 1129.43 24.1478 1130.11 21.4249H1131L1130.5 23.3238V24.1837C1130.5 25.5451 1131.29 26.3333 1132.65 26.3333H1135.91V23.6104H1133.3V16.0508C1133.3 11.3574 1130.5 8.16871 1125.3 8.16871C1120.68 8.16871 1117.96 10.82 1117.56 14.8685H1120.72C1121 11.8948 1122.87 10.7483 1125.34 10.7483C1128.49 10.7483 1129.96 12.2889 1130.11 15.5134L1123.12 16.1941C1118.89 16.5882 1117.17 18.5587 1117.17 21.3891ZM1120.32 20.995C1120.32 19.2753 1121.47 18.6662 1123.66 18.4512L1130.11 17.7705C1130.11 21.3533 1127.56 24.0762 1123.69 24.0762C1121.65 24.0762 1120.32 23.0372 1120.32 20.995ZM1149.77 23.6104L1143.46 23.6463V11.2499H1149.05V8.52699H1143.46V3.04535L1140.27 4.0127V8.52699H1136.33V11.2499H1140.27V23.8254C1140.27 25.5451 1141.09 26.3333 1142.78 26.3333H1149.77V23.6104ZM1152.7 21.3891C1152.7 23.2522 1153.48 26.6916 1158.72 26.6916C1163.05 26.6916 1164.95 24.1478 1165.64 21.4249H1166.53L1166.03 23.3238V24.1837C1166.03 25.5451 1166.82 26.3333 1168.18 26.3333H1171.44V23.6104H1168.83V16.0508C1168.83 11.3574 1166.03 8.16871 1160.83 8.16871C1156.21 8.16871 1153.48 10.82 1153.09 14.8685H1156.24C1156.53 11.8948 1158.4 10.7483 1160.87 10.7483C1164.02 10.7483 1165.49 12.2889 1165.64 15.5134L1158.65 16.1941C1154.42 16.5882 1152.7 18.5587 1152.7 21.3891ZM1155.85 20.995C1155.85 19.2753 1157 18.6662 1159.18 18.4512L1165.64 17.7705C1165.64 21.3533 1163.09 24.0762 1159.22 24.0762C1157.18 24.0762 1155.85 23.0372 1155.85 20.995Z" fill="white"/>
</svg>
