<svg width="120" height="66" viewBox="0 0 120 66" fill="none" xmlns="http://www.w3.org/2000/svg">
<path d="M0 65.3084V0.691559H19.243V10.2776H10.3671V55.7224H19.243V65.3084H0Z" fill="white"/>
<path d="M0 65.3084V0.691559H19.243V10.2776H10.3671V55.7224H19.243V65.3084H0Z" fill="url(#paint0_radial_39_41)"/>
<path d="M0 65.3084V0.691559H19.243V10.2776H10.3671V55.7224H19.243V65.3084H0Z" fill="url(#paint1_radial_39_41)"/>
<path d="M0 65.3084V0.691559H19.243V10.2776H10.3671V55.7224H19.243V65.3084H0Z" fill="url(#paint2_radial_39_41)"/>
<path d="M59.9703 53.3792C57.0827 53.3792 54.4317 52.7401 52.0175 51.462C49.6506 50.1838 47.757 48.4086 46.3369 46.1364C44.9641 43.8642 44.2777 41.1659 44.2777 38.0415V16.3842C44.2777 15.6268 44.0883 14.9404 43.7096 14.325C43.3309 13.7096 42.8338 13.2126 42.2184 12.8339C41.603 12.4551 40.9166 12.2658 40.1592 12.2658C39.4018 12.2658 38.7154 12.4551 38.1 12.8339C37.4846 13.2126 36.9875 13.7096 36.6088 14.325C36.2775 14.9404 36.1118 15.6268 36.1118 16.3842V52.5271H24.4665V17.2363C24.4665 14.254 25.1293 11.6267 26.4548 9.35448C27.8276 7.08224 29.6974 5.28338 32.0644 3.95791C34.4786 2.63243 37.1769 1.9697 40.1592 1.9697C43.1889 1.9697 45.8872 2.63243 48.2541 3.95791C50.621 5.28338 52.4909 7.08224 53.8637 9.35448C55.2365 11.6267 55.9229 14.254 55.9229 17.2363V38.8936C55.9229 39.6984 56.1122 40.4085 56.4909 41.0238C56.8697 41.6392 57.343 42.1363 57.9111 42.515C58.5265 42.8464 59.1892 43.0121 59.8993 43.0121C60.6567 43.0121 61.3431 42.8464 61.9585 42.515C62.6213 42.1363 63.142 41.6392 63.5207 41.0238C63.8994 40.4085 64.0888 39.6984 64.0888 38.8936V17.2363C64.0888 14.254 64.7752 11.6267 66.148 9.35448C67.5208 7.08224 69.3907 5.28338 71.7576 3.95791C74.1718 2.63243 76.8465 1.9697 79.7814 1.9697C82.8111 1.9697 85.4857 2.63243 87.8053 3.95791C90.1722 5.28338 92.0421 7.08224 93.4149 9.35448C94.7877 11.6267 95.4741 14.254 95.4741 17.2363V52.5271H83.8289V16.3132C83.8289 15.5558 83.6395 14.8931 83.2608 14.325C82.9294 13.7096 82.456 13.2126 81.8407 12.8339C81.2253 12.4551 80.5388 12.2658 79.7814 12.2658C79.0714 12.2658 78.3849 12.4551 77.7222 12.8339C77.1068 13.2126 76.6098 13.7096 76.2311 14.325C75.8523 14.8931 75.663 15.5558 75.663 16.3132V38.0415C75.663 41.1659 74.9529 43.8642 73.5328 46.1364C72.1126 48.4086 70.2191 50.1838 67.8522 51.462C65.4852 52.7401 62.858 53.3792 59.9703 53.3792Z" fill="white"/>
<path d="M59.9703 53.3792C57.0827 53.3792 54.4317 52.7401 52.0175 51.462C49.6506 50.1838 47.757 48.4086 46.3369 46.1364C44.9641 43.8642 44.2777 41.1659 44.2777 38.0415V16.3842C44.2777 15.6268 44.0883 14.9404 43.7096 14.325C43.3309 13.7096 42.8338 13.2126 42.2184 12.8339C41.603 12.4551 40.9166 12.2658 40.1592 12.2658C39.4018 12.2658 38.7154 12.4551 38.1 12.8339C37.4846 13.2126 36.9875 13.7096 36.6088 14.325C36.2775 14.9404 36.1118 15.6268 36.1118 16.3842V52.5271H24.4665V17.2363C24.4665 14.254 25.1293 11.6267 26.4548 9.35448C27.8276 7.08224 29.6974 5.28338 32.0644 3.95791C34.4786 2.63243 37.1769 1.9697 40.1592 1.9697C43.1889 1.9697 45.8872 2.63243 48.2541 3.95791C50.621 5.28338 52.4909 7.08224 53.8637 9.35448C55.2365 11.6267 55.9229 14.254 55.9229 17.2363V38.8936C55.9229 39.6984 56.1122 40.4085 56.4909 41.0238C56.8697 41.6392 57.343 42.1363 57.9111 42.515C58.5265 42.8464 59.1892 43.0121 59.8993 43.0121C60.6567 43.0121 61.3431 42.8464 61.9585 42.515C62.6213 42.1363 63.142 41.6392 63.5207 41.0238C63.8994 40.4085 64.0888 39.6984 64.0888 38.8936V17.2363C64.0888 14.254 64.7752 11.6267 66.148 9.35448C67.5208 7.08224 69.3907 5.28338 71.7576 3.95791C74.1718 2.63243 76.8465 1.9697 79.7814 1.9697C82.8111 1.9697 85.4857 2.63243 87.8053 3.95791C90.1722 5.28338 92.0421 7.08224 93.4149 9.35448C94.7877 11.6267 95.4741 14.254 95.4741 17.2363V52.5271H83.8289V16.3132C83.8289 15.5558 83.6395 14.8931 83.2608 14.325C82.9294 13.7096 82.456 13.2126 81.8407 12.8339C81.2253 12.4551 80.5388 12.2658 79.7814 12.2658C79.0714 12.2658 78.3849 12.4551 77.7222 12.8339C77.1068 13.2126 76.6098 13.7096 76.2311 14.325C75.8523 14.8931 75.663 15.5558 75.663 16.3132V38.0415C75.663 41.1659 74.9529 43.8642 73.5328 46.1364C72.1126 48.4086 70.2191 50.1838 67.8522 51.462C65.4852 52.7401 62.858 53.3792 59.9703 53.3792Z" fill="url(#paint3_radial_39_41)"/>
<path d="M59.9703 53.3792C57.0827 53.3792 54.4317 52.7401 52.0175 51.462C49.6506 50.1838 47.757 48.4086 46.3369 46.1364C44.9641 43.8642 44.2777 41.1659 44.2777 38.0415V16.3842C44.2777 15.6268 44.0883 14.9404 43.7096 14.325C43.3309 13.7096 42.8338 13.2126 42.2184 12.8339C41.603 12.4551 40.9166 12.2658 40.1592 12.2658C39.4018 12.2658 38.7154 12.4551 38.1 12.8339C37.4846 13.2126 36.9875 13.7096 36.6088 14.325C36.2775 14.9404 36.1118 15.6268 36.1118 16.3842V52.5271H24.4665V17.2363C24.4665 14.254 25.1293 11.6267 26.4548 9.35448C27.8276 7.08224 29.6974 5.28338 32.0644 3.95791C34.4786 2.63243 37.1769 1.9697 40.1592 1.9697C43.1889 1.9697 45.8872 2.63243 48.2541 3.95791C50.621 5.28338 52.4909 7.08224 53.8637 9.35448C55.2365 11.6267 55.9229 14.254 55.9229 17.2363V38.8936C55.9229 39.6984 56.1122 40.4085 56.4909 41.0238C56.8697 41.6392 57.343 42.1363 57.9111 42.515C58.5265 42.8464 59.1892 43.0121 59.8993 43.0121C60.6567 43.0121 61.3431 42.8464 61.9585 42.515C62.6213 42.1363 63.142 41.6392 63.5207 41.0238C63.8994 40.4085 64.0888 39.6984 64.0888 38.8936V17.2363C64.0888 14.254 64.7752 11.6267 66.148 9.35448C67.5208 7.08224 69.3907 5.28338 71.7576 3.95791C74.1718 2.63243 76.8465 1.9697 79.7814 1.9697C82.8111 1.9697 85.4857 2.63243 87.8053 3.95791C90.1722 5.28338 92.0421 7.08224 93.4149 9.35448C94.7877 11.6267 95.4741 14.254 95.4741 17.2363V52.5271H83.8289V16.3132C83.8289 15.5558 83.6395 14.8931 83.2608 14.325C82.9294 13.7096 82.456 13.2126 81.8407 12.8339C81.2253 12.4551 80.5388 12.2658 79.7814 12.2658C79.0714 12.2658 78.3849 12.4551 77.7222 12.8339C77.1068 13.2126 76.6098 13.7096 76.2311 14.325C75.8523 14.8931 75.663 15.5558 75.663 16.3132V38.0415C75.663 41.1659 74.9529 43.8642 73.5328 46.1364C72.1126 48.4086 70.2191 50.1838 67.8522 51.462C65.4852 52.7401 62.858 53.3792 59.9703 53.3792Z" fill="url(#paint4_radial_39_41)"/>
<path d="M59.9703 53.3792C57.0827 53.3792 54.4317 52.7401 52.0175 51.462C49.6506 50.1838 47.757 48.4086 46.3369 46.1364C44.9641 43.8642 44.2777 41.1659 44.2777 38.0415V16.3842C44.2777 15.6268 44.0883 14.9404 43.7096 14.325C43.3309 13.7096 42.8338 13.2126 42.2184 12.8339C41.603 12.4551 40.9166 12.2658 40.1592 12.2658C39.4018 12.2658 38.7154 12.4551 38.1 12.8339C37.4846 13.2126 36.9875 13.7096 36.6088 14.325C36.2775 14.9404 36.1118 15.6268 36.1118 16.3842V52.5271H24.4665V17.2363C24.4665 14.254 25.1293 11.6267 26.4548 9.35448C27.8276 7.08224 29.6974 5.28338 32.0644 3.95791C34.4786 2.63243 37.1769 1.9697 40.1592 1.9697C43.1889 1.9697 45.8872 2.63243 48.2541 3.95791C50.621 5.28338 52.4909 7.08224 53.8637 9.35448C55.2365 11.6267 55.9229 14.254 55.9229 17.2363V38.8936C55.9229 39.6984 56.1122 40.4085 56.4909 41.0238C56.8697 41.6392 57.343 42.1363 57.9111 42.515C58.5265 42.8464 59.1892 43.0121 59.8993 43.0121C60.6567 43.0121 61.3431 42.8464 61.9585 42.515C62.6213 42.1363 63.142 41.6392 63.5207 41.0238C63.8994 40.4085 64.0888 39.6984 64.0888 38.8936V17.2363C64.0888 14.254 64.7752 11.6267 66.148 9.35448C67.5208 7.08224 69.3907 5.28338 71.7576 3.95791C74.1718 2.63243 76.8465 1.9697 79.7814 1.9697C82.8111 1.9697 85.4857 2.63243 87.8053 3.95791C90.1722 5.28338 92.0421 7.08224 93.4149 9.35448C94.7877 11.6267 95.4741 14.254 95.4741 17.2363V52.5271H83.8289V16.3132C83.8289 15.5558 83.6395 14.8931 83.2608 14.325C82.9294 13.7096 82.456 13.2126 81.8407 12.8339C81.2253 12.4551 80.5388 12.2658 79.7814 12.2658C79.0714 12.2658 78.3849 12.4551 77.7222 12.8339C77.1068 13.2126 76.6098 13.7096 76.2311 14.325C75.8523 14.8931 75.663 15.5558 75.663 16.3132V38.0415C75.663 41.1659 74.9529 43.8642 73.5328 46.1364C72.1126 48.4086 70.2191 50.1838 67.8522 51.462C65.4852 52.7401 62.858 53.3792 59.9703 53.3792Z" fill="url(#paint5_radial_39_41)"/>
<path d="M100.757 65.3084V55.7224H109.633V10.2776H100.757V0.691559H120V65.3084H100.757Z" fill="white"/>
<path d="M100.757 65.3084V55.7224H109.633V10.2776H100.757V0.691559H120V65.3084H100.757Z" fill="url(#paint6_radial_39_41)"/>
<path d="M100.757 65.3084V55.7224H109.633V10.2776H100.757V0.691559H120V65.3084H100.757Z" fill="url(#paint7_radial_39_41)"/>
<path d="M100.757 65.3084V55.7224H109.633V10.2776H100.757V0.691559H120V65.3084H100.757Z" fill="url(#paint8_radial_39_41)"/>
<defs>
<radialGradient id="paint0_radial_39_41" cx="0" cy="0" r="1" gradientUnits="userSpaceOnUse" gradientTransform="translate(0 0.691559) scale(119.825 222.527)">
<stop stop-color="#00E0FF"/>
<stop offset="1" stop-color="#00E0FF" stop-opacity="0"/>
</radialGradient>
<radialGradient id="paint1_radial_39_41" cx="0" cy="0" r="1" gradientUnits="userSpaceOnUse" gradientTransform="translate(119.825 65.0422) rotate(-180) scale(119.825 222.527)">
<stop stop-color="#3ACCB2"/>
<stop offset="1" stop-color="#00FFD2" stop-opacity="0"/>
</radialGradient>
<radialGradient id="paint2_radial_39_41" cx="0" cy="0" r="1" gradientUnits="userSpaceOnUse" gradientTransform="translate(53.2557 39.8936) rotate(36.2349) scale(60.0642 111.545)">
<stop stop-color="#BC49E4"/>
<stop offset="1" stop-color="#BC49E4" stop-opacity="0"/>
</radialGradient>
<radialGradient id="paint3_radial_39_41" cx="0" cy="0" r="1" gradientUnits="userSpaceOnUse" gradientTransform="translate(0 0.691559) scale(119.825 222.527)">
<stop stop-color="#00E0FF"/>
<stop offset="1" stop-color="#00E0FF" stop-opacity="0"/>
</radialGradient>
<radialGradient id="paint4_radial_39_41" cx="0" cy="0" r="1" gradientUnits="userSpaceOnUse" gradientTransform="translate(119.825 65.0422) rotate(-180) scale(119.825 222.527)">
<stop stop-color="#3ACCB2"/>
<stop offset="1" stop-color="#00FFD2" stop-opacity="0"/>
</radialGradient>
<radialGradient id="paint5_radial_39_41" cx="0" cy="0" r="1" gradientUnits="userSpaceOnUse" gradientTransform="translate(53.2557 39.8936) rotate(36.2349) scale(60.0642 111.545)">
<stop stop-color="#BC49E4"/>
<stop offset="1" stop-color="#BC49E4" stop-opacity="0"/>
</radialGradient>
<radialGradient id="paint6_radial_39_41" cx="0" cy="0" r="1" gradientUnits="userSpaceOnUse" gradientTransform="translate(0 0.691559) scale(119.825 222.527)">
<stop stop-color="#00E0FF"/>
<stop offset="1" stop-color="#00E0FF" stop-opacity="0"/>
</radialGradient>
<radialGradient id="paint7_radial_39_41" cx="0" cy="0" r="1" gradientUnits="userSpaceOnUse" gradientTransform="translate(119.825 65.0422) rotate(-180) scale(119.825 222.527)">
<stop stop-color="#3ACCB2"/>
<stop offset="1" stop-color="#00FFD2" stop-opacity="0"/>
</radialGradient>
<radialGradient id="paint8_radial_39_41" cx="0" cy="0" r="1" gradientUnits="userSpaceOnUse" gradientTransform="translate(53.2557 39.8936) rotate(36.2349) scale(60.0642 111.545)">
<stop stop-color="#BC49E4"/>
<stop offset="1" stop-color="#BC49E4" stop-opacity="0"/>
</radialGradient>
</defs>
</svg>
