<svg width="1130" height="101" viewBox="0 0 1130 101" fill="none" xmlns="http://www.w3.org/2000/svg">
<path d="M0 101V2.59529H29.2252V17.1938H15.745V86.4015H29.2252V101H0Z" fill="#FAFAFA"/>
<path d="M94.3147 82.833C89.9291 82.833 85.903 81.8597 82.2364 79.9133C78.6416 77.9668 75.7658 75.2634 73.609 71.803C71.524 68.3426 70.4816 64.2334 70.4816 59.4754V26.4936C70.4816 25.3401 70.194 24.2948 69.6188 23.3576C69.0437 22.4204 68.2888 21.6635 67.3541 21.0867C66.4195 20.51 65.377 20.2216 64.2267 20.2216C63.0764 20.2216 62.0339 20.51 61.0993 21.0867C60.1647 21.6635 59.4098 22.4204 58.8346 23.3576C58.3314 24.2948 58.0797 25.3401 58.0797 26.4936V81.5353H40.3936V27.7912C40.3936 23.2495 41.4001 19.2484 43.4132 15.788C45.4981 12.3276 48.338 9.58815 51.9327 7.56959C55.5994 5.55104 59.6974 4.54176 64.2267 4.54176C68.828 4.54176 72.926 5.55104 76.5207 7.56959C80.1155 9.58815 82.9553 12.3276 85.0403 15.788C87.1252 19.2484 88.1677 23.2495 88.1677 27.7912V60.773C88.1677 61.9986 88.4552 63.0799 89.0304 64.0171C89.6056 64.9543 90.3245 65.7113 91.1873 66.288C92.1219 66.7926 93.1284 67.045 94.2068 67.045C95.3571 67.045 96.3996 66.7926 97.3342 66.288C98.3408 65.7113 99.1316 64.9543 99.7068 64.0171C100.282 63.0799 100.57 61.9986 100.57 60.773V27.7912C100.57 23.2495 101.612 19.2484 103.697 15.788C105.782 12.3276 108.622 9.58815 112.216 7.56959C115.883 5.55104 119.945 4.54176 124.403 4.54176C129.004 4.54176 133.066 5.55104 136.589 7.56959C140.184 9.58815 143.023 12.3276 145.108 15.788C147.193 19.2484 148.236 23.2495 148.236 27.7912V81.5353H130.55V26.3854C130.55 25.232 130.262 24.2227 129.687 23.3576C129.184 22.4204 128.465 21.6635 127.53 21.0867C126.595 20.51 125.553 20.2216 124.403 20.2216C123.324 20.2216 122.282 20.51 121.275 21.0867C120.341 21.6635 119.586 22.4204 119.011 23.3576C118.435 24.2227 118.148 25.232 118.148 26.3854V59.4754C118.148 64.2334 117.069 68.3426 114.913 71.803C112.756 75.2634 109.88 77.9668 106.285 79.9133C102.69 81.8597 98.7002 82.833 94.3147 82.833Z" fill="#FAFAFA"/>
<path d="M163.592 81.5353V26.061H180.416V81.5353H163.592ZM172.004 19.7891C169.344 19.7891 167.043 18.8158 165.102 16.8694C163.161 14.9229 162.19 12.616 162.19 9.9486C162.19 7.28122 163.161 4.9743 165.102 3.02784C167.043 1.00928 169.344 0 172.004 0C174.664 0 176.965 1.00928 178.906 3.02784C180.847 4.9743 181.818 7.28122 181.818 9.9486C181.818 12.616 180.847 14.9229 178.906 16.8694C176.965 18.8158 174.664 19.7891 172.004 19.7891Z" fill="#FAFAFA"/>
<path d="M195.894 81.5353V49.6349C195.894 45.0211 197.009 40.8398 199.237 37.091C201.466 33.3423 204.63 30.3505 208.728 28.1156C212.897 25.8808 217.822 24.7634 223.502 24.7634C229.254 24.7634 234.142 25.8808 238.168 28.1156C242.266 30.3505 245.394 33.3423 247.551 37.091C249.708 40.8398 250.786 45.0211 250.786 49.6349V81.5353H234.07V50.0674C234.07 48.121 233.603 46.3547 232.669 44.7687C231.734 43.1106 230.44 41.813 228.786 40.8758C227.205 39.8665 225.407 39.3619 223.394 39.3619C221.309 39.3619 219.44 39.8665 217.786 40.8758C216.205 41.813 214.946 43.1106 214.012 44.7687C213.077 46.3547 212.61 48.121 212.61 50.0674V81.5353H195.894Z" fill="#FAFAFA"/>
<path d="M293.599 82.833C288.998 82.833 284.828 82.1121 281.09 80.6702C277.423 79.2284 274.332 77.1738 271.815 74.5064C269.299 71.767 267.358 68.5589 265.992 64.8822C264.626 61.2056 263.943 57.2045 263.943 52.879C263.943 47.2559 265.057 42.3537 267.286 38.1724C269.586 33.9911 272.714 30.7109 276.668 28.3319C280.694 25.9529 285.295 24.7634 290.472 24.7634C292.701 24.7634 294.786 25.0517 296.727 25.6285C298.74 26.2052 300.537 27.0703 302.119 28.2238C303.772 29.3051 305.138 30.6028 306.217 32.1167H306.54V2.59529H323.256V52.7709C323.256 58.8265 322.034 64.1253 319.589 68.667C317.145 73.2088 313.694 76.7052 309.236 79.1563C304.851 81.6074 299.639 82.833 293.599 82.833ZM293.599 68.3426C296.188 68.3426 298.416 67.7298 300.286 66.5043C302.227 65.2066 303.701 63.4764 304.707 61.3137C305.714 59.0789 306.217 56.5917 306.217 53.8522C306.217 51.1128 305.714 48.6617 304.707 46.4989C303.701 44.3362 302.227 42.642 300.286 41.4165C298.416 40.1188 296.188 39.47 293.599 39.47C291.083 39.47 288.854 40.1188 286.913 41.4165C284.972 42.642 283.498 44.3362 282.492 46.4989C281.485 48.6617 280.982 51.1128 280.982 53.8522C280.982 56.5917 281.485 59.0789 282.492 61.3137C283.498 63.4764 284.972 65.2066 286.913 66.5043C288.854 67.7298 291.083 68.3426 293.599 68.3426Z" fill="#FAFAFA"/>
<path d="M339.292 81.5353V66.3961H371.536C372.974 66.3961 374.268 66.0357 375.419 65.3148C376.569 64.5939 377.468 63.6567 378.115 62.5032C378.834 61.3498 379.193 60.0882 379.193 58.7184C379.193 57.2766 378.834 55.9789 378.115 54.8255C377.468 53.672 376.569 52.7348 375.419 52.0139C374.268 51.293 372.974 50.9326 371.536 50.9326H359.889C355.504 50.9326 351.514 50.0675 347.919 48.3373C344.324 46.6071 341.448 44.0839 339.292 40.7677C337.207 37.3794 336.164 33.3423 336.164 28.6563C336.164 24.0425 337.171 20.0414 339.184 16.6531C341.197 13.2648 343.929 10.6335 347.38 8.7591C350.831 6.81263 354.641 5.8394 358.811 5.8394H392.134V20.9786H360.86C359.566 20.9786 358.38 21.303 357.301 21.9518C356.223 22.6006 355.396 23.4657 354.821 24.5471C354.246 25.6285 353.958 26.818 353.958 28.1156C353.958 29.4133 354.246 30.6028 354.821 31.6842C355.396 32.6934 356.223 33.5225 357.301 34.1713C358.38 34.8201 359.566 35.1445 360.86 35.1445H373.046C377.863 35.1445 382.033 36.0817 385.556 37.9561C389.151 39.7584 391.918 42.3176 393.86 45.6338C395.873 48.8779 396.879 52.6988 396.879 57.0964C396.879 62.2869 395.837 66.7206 393.752 70.3972C391.739 74.0018 389.007 76.7773 385.556 78.7238C382.105 80.5981 378.294 81.5353 374.125 81.5353H339.292Z" fill="#FAFAFA"/>
<path d="M430.079 81.5353C424.975 81.5353 420.985 80.0935 418.109 77.2098C415.233 74.2541 413.795 70.2891 413.795 65.3148V12.5439H430.619V64.3415C430.619 65.2066 430.906 65.9636 431.481 66.6124C432.128 67.1891 432.883 67.4775 433.746 67.4775H445.824V81.5353H430.079ZM404.737 39.7944V26.061H445.824V39.7944H404.737Z" fill="#FAFAFA"/>
<path d="M458.842 81.5353V42.3897C458.842 37.3433 460.28 33.3783 463.156 30.4946C466.032 27.611 470.022 26.1692 475.126 26.1692H491.195V39.7944H479.224C478.218 39.7944 477.355 40.1549 476.636 40.8758C475.917 41.5246 475.558 42.3897 475.558 43.4711V81.5353H458.842Z" fill="#FAFAFA"/>
<path d="M530.798 81.5353C524.543 81.5353 519.043 80.3819 514.298 78.075C509.553 75.6959 505.851 72.4518 503.19 68.3426C500.602 64.1613 499.308 59.3312 499.308 53.8522C499.308 47.7966 500.566 42.606 503.083 38.2805C505.599 33.955 508.942 30.6388 513.112 28.3319C517.354 25.9529 522.027 24.7634 527.131 24.7634C532.955 24.7634 537.808 25.9889 541.69 28.44C545.644 30.8912 548.628 34.2434 550.641 38.4968C552.654 42.6781 553.661 47.4722 553.661 52.879C553.661 53.8162 553.589 54.9336 553.445 56.2313C553.373 57.4568 553.265 58.43 553.121 59.151H516.886C517.318 61.0253 518.145 62.6113 519.367 63.909C520.589 65.2066 522.135 66.1799 524.004 66.8287C525.873 67.4054 527.958 67.6938 530.259 67.6938H547.19V81.5353H530.798ZM516.455 48.6617H537.484C537.341 47.5082 537.125 46.3908 536.837 45.3094C536.55 44.2281 536.082 43.2909 535.435 42.4979C534.86 41.6328 534.177 40.9118 533.386 40.3351C532.595 39.6863 531.661 39.1817 530.582 38.8212C529.576 38.4607 528.426 38.2805 527.131 38.2805C525.478 38.2805 524.004 38.5689 522.71 39.1456C521.416 39.7223 520.337 40.5153 519.475 41.5246C518.612 42.4618 517.929 43.5792 517.426 44.8769C516.994 46.1024 516.671 47.364 516.455 48.6617Z" fill="#FAFAFA"/>
<path d="M588.851 82.833C583.962 82.833 579.648 81.5714 575.91 79.0482C572.171 76.525 569.26 73.1367 567.175 68.8833C565.09 64.5578 564.047 59.6917 564.047 54.2848C564.047 48.6617 565.269 43.6513 567.714 39.2537C570.158 34.7841 573.609 31.2516 578.067 28.6563C582.596 26.061 587.916 24.7634 594.027 24.7634C600.21 24.7634 605.458 26.061 609.772 28.6563C614.158 31.1795 617.501 34.6759 619.802 39.1456C622.174 43.5432 623.36 48.4814 623.36 53.9604V81.5353H606.968V72.6681H606.537C605.53 74.6146 604.236 76.3808 602.655 77.9668C601.073 79.4807 599.132 80.6702 596.831 81.5353C594.602 82.4004 591.942 82.833 588.851 82.833ZM593.812 68.3426C596.328 68.3426 598.521 67.7298 600.39 66.5043C602.331 65.2066 603.805 63.4404 604.811 61.2056C605.818 58.9707 606.321 56.4836 606.321 53.7441C606.321 51.0767 605.818 48.6617 604.811 46.4989C603.805 44.3362 602.331 42.642 600.39 41.4165C598.521 40.1188 596.328 39.47 593.812 39.47C591.223 39.47 588.959 40.1188 587.018 41.4165C585.076 42.642 583.603 44.3362 582.596 46.4989C581.589 48.6617 581.086 51.0767 581.086 53.7441C581.086 56.4836 581.589 58.9707 582.596 61.2056C583.603 63.4404 585.076 65.2066 587.018 66.5043C588.959 67.7298 591.223 68.3426 593.812 68.3426Z" fill="#FAFAFA"/>
<path d="M638.957 81.5353V48.7698C638.957 44.2281 639.999 40.1549 642.084 36.5503C644.241 32.8737 647.297 29.99 651.251 27.8994C655.205 25.8087 659.914 24.7634 665.378 24.7634C668.11 24.7634 670.627 25.0878 672.927 25.7366C675.228 26.3133 677.313 27.1424 679.182 28.2238C681.123 29.233 682.777 30.4586 684.143 31.9004H684.358C685.796 30.4586 687.45 29.233 689.319 28.2238C691.26 27.1424 693.381 26.3133 695.682 25.7366C698.054 25.0878 700.607 24.7634 703.339 24.7634C708.803 24.7634 713.512 25.8087 717.466 27.8994C721.42 29.99 724.476 32.8737 726.633 36.5503C728.789 40.1549 729.868 44.2281 729.868 48.7698V81.5353H713.044V49.3105C713.044 47.5082 712.577 45.8862 711.643 44.4443C710.78 42.9304 709.594 41.7049 708.084 40.7677C706.574 39.8305 704.849 39.3619 702.907 39.3619C700.966 39.3619 699.205 39.8305 697.623 40.7677C696.113 41.7049 694.927 42.9304 694.064 44.4443C693.202 45.8862 692.77 47.5082 692.77 49.3105V81.5353H676.055V49.3105C676.055 47.5082 675.587 45.8862 674.653 44.4443C673.79 42.9304 672.568 41.7049 670.986 40.7677C669.476 39.8305 667.751 39.3619 665.81 39.3619C663.868 39.3619 662.107 39.8305 660.525 40.7677C659.016 41.7049 657.829 42.9304 656.967 44.4443C656.104 45.8862 655.672 47.5082 655.672 49.3105V81.5353H638.957Z" fill="#FAFAFA"/>
<path d="M810.004 81.5353C805.403 81.5353 801.34 80.526 797.818 78.5075C794.367 76.4168 791.635 73.6413 789.622 70.1809C787.68 66.7206 786.71 62.8637 786.71 58.6103V20.9786H766.22V5.8394H825.21V20.9786H804.827V60.2323C804.827 61.8904 805.403 63.3323 806.553 64.5578C807.703 65.7834 809.141 66.3961 810.867 66.3961H816.798V81.5353H810.004Z" fill="#FAFAFA"/>
<path d="M858.354 82.833C852.674 82.833 847.57 81.5714 843.041 79.0482C838.511 76.525 834.916 73.0646 832.256 68.667C829.668 64.2694 828.374 59.3312 828.374 53.8522C828.374 48.3012 829.668 43.363 832.256 39.0375C834.916 34.6399 838.511 31.1795 843.041 28.6563C847.57 26.061 852.674 24.7634 858.354 24.7634C864.034 24.7634 869.102 26.061 873.56 28.6563C878.089 31.1795 881.648 34.6399 884.236 39.0375C886.896 43.363 888.226 48.3012 888.226 53.8522C888.226 59.3312 886.896 64.2694 884.236 68.667C881.648 73.0646 878.089 76.525 873.56 79.0482C869.031 81.5714 863.962 82.833 858.354 82.833ZM858.354 68.2345C861.014 68.2345 863.315 67.5856 865.256 66.288C867.197 64.9904 868.707 63.2602 869.785 61.0974C870.864 58.9347 871.403 56.4836 871.403 53.7441C871.403 51.0767 870.864 48.6617 869.785 46.4989C868.707 44.3362 867.197 42.606 865.256 41.3084C863.315 40.0107 861.014 39.3619 858.354 39.3619C855.694 39.3619 853.357 40.0107 851.344 41.3084C849.403 42.606 847.893 44.3362 846.815 46.4989C845.737 48.6617 845.197 51.0767 845.197 53.7441C845.197 56.4836 845.737 58.9347 846.815 61.0974C847.893 63.2602 849.403 64.9904 851.344 66.288C853.357 67.5856 855.694 68.2345 858.354 68.2345Z" fill="#FAFAFA"/>
<path d="M901.388 81.5353V2.59529H918.104V47.0396H925.437L938.055 26.061H956.711L941.829 49.2024C946.143 51.0046 949.486 53.7802 951.858 57.5289C954.303 61.2056 955.525 65.5311 955.525 70.5054V81.5353H938.702V70.5054C938.702 68.4868 938.198 66.6845 937.192 65.0985C936.257 63.4404 934.999 62.1428 933.417 61.2056C931.836 60.2684 930.038 59.7998 928.025 59.7998H918.104V81.5353H901.388Z" fill="#FAFAFA"/>
<path d="M998.399 81.5353C992.144 81.5353 986.644 80.3819 981.899 78.075C977.154 75.6959 973.451 72.4518 970.791 68.3426C968.203 64.1613 966.909 59.3312 966.909 53.8522C966.909 47.7966 968.167 42.606 970.684 38.2805C973.2 33.955 976.543 30.6388 980.713 28.3319C984.955 25.9529 989.628 24.7634 994.732 24.7634C1000.56 24.7634 1005.41 25.9889 1009.29 28.44C1013.25 30.8912 1016.23 34.2434 1018.24 38.4968C1020.25 42.6781 1021.26 47.4722 1021.26 52.879C1021.26 53.8162 1021.19 54.9336 1021.05 56.2313C1020.97 57.4568 1020.87 58.43 1020.72 59.151H984.487C984.919 61.0253 985.745 62.6113 986.968 63.909C988.19 65.2066 989.736 66.1799 991.605 66.8287C993.474 67.4054 995.559 67.6938 997.86 67.6938H1014.79V81.5353H998.399ZM984.056 48.6617H1005.09C1004.94 47.5082 1004.73 46.3908 1004.44 45.3094C1004.15 44.2281 1003.68 43.2909 1003.04 42.4979C1002.46 41.6328 1001.78 40.9118 1000.99 40.3351C1000.2 39.6863 999.262 39.1817 998.183 38.8212C997.177 38.4607 996.026 38.2805 994.732 38.2805C993.079 38.2805 991.605 38.5689 990.311 39.1456C989.017 39.7223 987.938 40.5153 987.076 41.5246C986.213 42.4618 985.53 43.5792 985.027 44.8769C984.595 46.1024 984.272 47.364 984.056 48.6617Z" fill="#FAFAFA"/>
<path d="M1034.24 81.5353V49.6349C1034.24 45.0211 1035.35 40.8398 1037.58 37.091C1039.81 33.3423 1042.97 30.3505 1047.07 28.1156C1051.24 25.8808 1056.16 24.7634 1061.84 24.7634C1067.6 24.7634 1072.48 25.8808 1076.51 28.1156C1080.61 30.3505 1083.74 33.3423 1085.89 37.091C1088.05 40.8398 1089.13 45.0211 1089.13 49.6349V81.5353H1072.41V50.0674C1072.41 48.121 1071.95 46.3547 1071.01 44.7687C1070.08 43.1106 1068.78 41.813 1067.13 40.8758C1065.55 39.8665 1063.75 39.3619 1061.74 39.3619C1059.65 39.3619 1057.78 39.8665 1056.13 40.8758C1054.55 41.813 1053.29 43.1106 1052.35 44.7687C1051.42 46.3547 1050.95 48.121 1050.95 50.0674V81.5353H1034.24Z" fill="#FAFAFA"/>
<path d="M1100.77 101V86.4015H1114.26V17.1938H1100.77V2.59529H1130V101H1100.77Z" fill="#FAFAFA"/>
</svg>
